<?xml version="1.0" standalone="no"?>
<!DOCTYPE svg PUBLIC "-//W3C//DTD SVG 1.1//EN"
"http://www.w3.org/Graphics/SVG/1.1/DTD/svg11.dtd">
<svg xmlns="http://www.w3.org/2000/svg"
width="765" height="565" >
<g>
<line x1="40" y1="40"  x2="40" y2="500" style=" stroke: black;"/>
<line x1="40" y1="500"  x2="700" y2="500" style=" stroke: black;"/>
<line x1="37" y1="454"  x2="40" y2="454" style=" stroke: black;"/>
<text x="5" y="454" style="font-family: monospace; font-size: 10px;">27</text>
<line x1="37" y1="408"  x2="40" y2="408" style=" stroke: black;"/>
<text x="5" y="408" style="font-family: monospace; font-size: 10px;">55</text>
<line x1="37" y1="362"  x2="40" y2="362" style=" stroke: black;"/>
<text x="5" y="362" style="font-family: monospace; font-size: 10px;">83</text>
<line x1="37" y1="316"  x2="40" y2="316" style=" stroke: black;"/>
<text x="5" y="316" style="font-family: monospace; font-size: 10px;">111</text>
<line x1="37" y1="270"  x2="40" y2="270" style=" stroke: black;"/>
<text x="5" y="270" style="font-family: monospace; font-size: 10px;">139</text>
<line x1="37" y1="224"  x2="40" y2="224" style=" stroke: black;"/>
<text x="5" y="224" style="font-family: monospace; font-size: 10px;">167</text>
<line x1="37" y1="178"  x2="40" y2="178" style=" stroke: black;"/>
<text x="5" y="178" style="font-family: monospace; font-size: 10px;">195</text>
<line x1="37" y1="132"  x2="40" y2="132" style=" stroke: black;"/>
<text x="5" y="132" style="font-family: monospace; font-size: 10px;">223</text>
<line x1="37" y1="86"  x2="40" y2="86" style=" stroke: black;"/>
<text x="5" y="86" style="font-family: monospace; font-size: 10px;">251</text>
<line x1="37" y1="40"  x2="40" y2="40" style=" stroke: black;"/>
<text x="5" y="40" style="font-family: monospace; font-size: 10px;">279</text>
<text x="5" y="15" style="font-family: monospace; font-size: 10px;">nbr</text>
<rect x="40" y="270" width="33" height="229"  fill= "#EBE448"  style=" stroke: black;" />
<line x1="40" y1="500"  x2="40" y2="505" style=" stroke: black;"/>
<text x="40" y="505" transform="rotate(90,40,505)" style="font-family: monospace; font-size: 10px;">0.00</text>
<rect x="73" y="483" width="33" height="16"  fill= "#EBE448"  style=" stroke: black;" />
<line x1="73" y1="500"  x2="73" y2="505" style=" stroke: black;"/>
<text x="73" y="505" transform="rotate(90,73,505)" style="font-family: monospace; font-size: 10px;">0.03</text>
<rect x="106" y="391" width="33" height="108"  fill= "#EBE448"  style=" stroke: black;" />
<line x1="106" y1="500"  x2="106" y2="505" style=" stroke: black;"/>
<text x="106" y="505" transform="rotate(90,106,505)" style="font-family: monospace; font-size: 10px;">0.06</text>
<rect x="139" y="473" width="33" height="26"  fill= "#EBE448"  style=" stroke: black;" />
<line x1="139" y1="500"  x2="139" y2="505" style=" stroke: black;"/>
<text x="139" y="505" transform="rotate(90,139,505)" style="font-family: monospace; font-size: 10px;">0.09</text>
<rect x="172" y="500" width="33" height="0"  fill= "#EBE448"  style=" stroke: black;" />
<line x1="172" y1="500"  x2="172" y2="505" style=" stroke: black;"/>
<text x="172" y="505" transform="rotate(90,172,505)" style="font-family: monospace; font-size: 10px;">0.11</text>
<rect x="205" y="500" width="33" height="0"  fill= "#EBE448"  style=" stroke: black;" />
<line x1="205" y1="500"  x2="205" y2="505" style=" stroke: black;"/>
<text x="205" y="505" transform="rotate(90,205,505)" style="font-family: monospace; font-size: 10px;">0.14</text>
<rect x="238" y="485" width="33" height="14"  fill= "#EBE448"  style=" stroke: black;" />
<line x1="238" y1="500"  x2="238" y2="505" style=" stroke: black;"/>
<text x="238" y="505" transform="rotate(90,238,505)" style="font-family: monospace; font-size: 10px;">0.17</text>
<rect x="271" y="392" width="33" height="107"  fill= "#EBE448"  style=" stroke: black;" />
<line x1="271" y1="500"  x2="271" y2="505" style=" stroke: black;"/>
<text x="271" y="505" transform="rotate(90,271,505)" style="font-family: monospace; font-size: 10px;">0.20</text>
<rect x="304" y="39" width="33" height="460"  fill= "#EBE448"  style=" stroke: black;" />
<line x1="304" y1="500"  x2="304" y2="505" style=" stroke: black;"/>
<text x="304" y="505" transform="rotate(90,304,505)" style="font-family: monospace; font-size: 10px;">0.23</text>
<rect x="337" y="193" width="33" height="306"  fill= "#EBE448"  style=" stroke: black;" />
<line x1="337" y1="500"  x2="337" y2="505" style=" stroke: black;"/>
<text x="337" y="505" transform="rotate(90,337,505)" style="font-family: monospace; font-size: 10px;">0.26</text>
<rect x="370" y="321" width="33" height="178"  fill= "#EBE448"  style=" stroke: black;" />
<line x1="370" y1="500"  x2="370" y2="505" style=" stroke: black;"/>
<text x="370" y="505" transform="rotate(90,370,505)" style="font-family: monospace; font-size: 10px;">0.28</text>
<rect x="403" y="373" width="33" height="126"  fill= "#EBE448"  style=" stroke: black;" />
<line x1="403" y1="500"  x2="403" y2="505" style=" stroke: black;"/>
<text x="403" y="505" transform="rotate(90,403,505)" style="font-family: monospace; font-size: 10px;">0.31</text>
<rect x="436" y="254" width="33" height="245"  fill= "#EBE448"  style=" stroke: black;" />
<line x1="436" y1="500"  x2="436" y2="505" style=" stroke: black;"/>
<text x="436" y="505" transform="rotate(90,436,505)" style="font-family: monospace; font-size: 10px;">0.34</text>
<rect x="469" y="318" width="33" height="181"  fill= "#EBE448"  style=" stroke: black;" />
<line x1="469" y1="500"  x2="469" y2="505" style=" stroke: black;"/>
<text x="469" y="505" transform="rotate(90,469,505)" style="font-family: monospace; font-size: 10px;">0.37</text>
<rect x="502" y="445" width="33" height="54"  fill= "#EBE448"  style=" stroke: black;" />
<line x1="502" y1="500"  x2="502" y2="505" style=" stroke: black;"/>
<text x="502" y="505" transform="rotate(90,502,505)" style="font-family: monospace; font-size: 10px;">0.40</text>
<rect x="535" y="407" width="33" height="92"  fill= "#EBE448"  style=" stroke: black;" />
<line x1="535" y1="500"  x2="535" y2="505" style=" stroke: black;"/>
<text x="535" y="505" transform="rotate(90,535,505)" style="font-family: monospace; font-size: 10px;">0.43</text>
<rect x="568" y="427" width="33" height="72"  fill= "#EBE448"  style=" stroke: black;" />
<line x1="568" y1="500"  x2="568" y2="505" style=" stroke: black;"/>
<text x="568" y="505" transform="rotate(90,568,505)" style="font-family: monospace; font-size: 10px;">0.45</text>
<rect x="601" y="473" width="33" height="26"  fill= "#EBE448"  style=" stroke: black;" />
<line x1="601" y1="500"  x2="601" y2="505" style=" stroke: black;"/>
<text x="601" y="505" transform="rotate(90,601,505)" style="font-family: monospace; font-size: 10px;">0.48</text>
<rect x="634" y="480" width="33" height="19"  fill= "#EBE448"  style=" stroke: black;" />
<line x1="634" y1="500"  x2="634" y2="505" style=" stroke: black;"/>
<text x="634" y="505" transform="rotate(90,634,505)" style="font-family: monospace; font-size: 10px;">0.51</text>
<rect x="667" y="500" width="33" height="0"  fill= "#EBE448"  style=" stroke: black;" />
<line x1="667" y1="500"  x2="667" y2="505" style=" stroke: black;"/>
<text x="667" y="505" transform="rotate(90,667,505)" style="font-family: monospace; font-size: 10px;">0.54</text>
<text x="685" y="510" style="font-family: monospace; font-size: 10px;">Dist. value</text>
</g>
</svg>
