<?xml version="1.0" standalone="no"?>
<!DOCTYPE svg PUBLIC "-//W3C//DTD SVG 1.1//EN"
"http://www.w3.org/Graphics/SVG/1.1/DTD/svg11.dtd">
<svg xmlns="http://www.w3.org/2000/svg"
width="745" height="545" >
<g>
<line x1="40" y1="40"  x2="40" y2="500" style=" stroke: black;"/>
<line x1="40" y1="500"  x2="700" y2="500" style=" stroke: black;"/>
<line x1="37" y1="454"  x2="40" y2="454" style=" stroke: black;"/>
<text x="8" y="454" style="font-family: monospace; font-size: 10px;">0.06</text>
<line x1="37" y1="408"  x2="40" y2="408" style=" stroke: black;"/>
<text x="8" y="408" style="font-family: monospace; font-size: 10px;">0.11</text>
<line x1="37" y1="362"  x2="40" y2="362" style=" stroke: black;"/>
<text x="8" y="362" style="font-family: monospace; font-size: 10px;">0.17</text>
<line x1="37" y1="316"  x2="40" y2="316" style=" stroke: black;"/>
<text x="8" y="316" style="font-family: monospace; font-size: 10px;">0.23</text>
<line x1="37" y1="270"  x2="40" y2="270" style=" stroke: black;"/>
<text x="8" y="270" style="font-family: monospace; font-size: 10px;">0.28</text>
<line x1="37" y1="224"  x2="40" y2="224" style=" stroke: black;"/>
<text x="8" y="224" style="font-family: monospace; font-size: 10px;">0.34</text>
<line x1="37" y1="178"  x2="40" y2="178" style=" stroke: black;"/>
<text x="8" y="178" style="font-family: monospace; font-size: 10px;">0.40</text>
<line x1="37" y1="132"  x2="40" y2="132" style=" stroke: black;"/>
<text x="8" y="132" style="font-family: monospace; font-size: 10px;">0.45</text>
<line x1="37" y1="86"  x2="40" y2="86" style=" stroke: black;"/>
<text x="8" y="86" style="font-family: monospace; font-size: 10px;">0.51</text>
<line x1="37" y1="40"  x2="40" y2="40" style=" stroke: black;"/>
<text x="8" y="40" style="font-family: monospace; font-size: 10px;">0.57</text>
<line x1="106" y1="500"  x2="106" y2="505" style=" stroke: black;"/>
<text x="106" y="505" transform="rotate(90,106,505)" style="font-family: monospace; font-size: 10px;">137</text>
<line x1="172" y1="500"  x2="172" y2="505" style=" stroke: black;"/>
<text x="172" y="505" transform="rotate(90,172,505)" style="font-family: monospace; font-size: 10px;">274</text>
<line x1="238" y1="500"  x2="238" y2="505" style=" stroke: black;"/>
<text x="238" y="505" transform="rotate(90,238,505)" style="font-family: monospace; font-size: 10px;">411</text>
<line x1="304" y1="500"  x2="304" y2="505" style=" stroke: black;"/>
<text x="304" y="505" transform="rotate(90,304,505)" style="font-family: monospace; font-size: 10px;">548</text>
<line x1="370" y1="500"  x2="370" y2="505" style=" stroke: black;"/>
<text x="370" y="505" transform="rotate(90,370,505)" style="font-family: monospace; font-size: 10px;">685</text>
<line x1="436" y1="500"  x2="436" y2="505" style=" stroke: black;"/>
<text x="436" y="505" transform="rotate(90,436,505)" style="font-family: monospace; font-size: 10px;">822</text>
<line x1="502" y1="500"  x2="502" y2="505" style=" stroke: black;"/>
<text x="502" y="505" transform="rotate(90,502,505)" style="font-family: monospace; font-size: 10px;">959</text>
<line x1="568" y1="500"  x2="568" y2="505" style=" stroke: black;"/>
<text x="568" y="505" transform="rotate(90,568,505)" style="font-family: monospace; font-size: 10px;">1096</text>
<line x1="634" y1="500"  x2="634" y2="505" style=" stroke: black;"/>
<text x="634" y="505" transform="rotate(90,634,505)" style="font-family: monospace; font-size: 10px;">1233</text>
<line x1="700" y1="500"  x2="700" y2="505" style=" stroke: black;"/>
<text x="700" y="505" transform="rotate(90,700,505)" style="font-family: monospace; font-size: 10px;">1370</text>
<text x="705" y="490" style="font-family: monospace; font-size: 10px;">Rank</text>
<text x="5" y="15" style="font-family: monospace; font-size: 10px;">Dist. value</text>
<polyline style="stroke: #D82424; stroke-width:1;fill: none;"  points="40 500,41 500,42 500,43 500,44 500,45 500,46 500,47 500,48 500,49 500,50 500,51 500,52 500,53 500,54 500,55 500,56 500,57 500,58 500,59 500,60 500,60 498,61 498,62 498,63 498,64 498,65 498,65 497,66 497,67 497,68 497,69 496,70 496,71 495,72 495,73 494,74 494,74 493,75 493,76 493,77 493,78 493,79 493,79 492,80 492,81 492,82 492,82 491,83 491,84 491,85 491,86 491,86 490,87 490,88 490,89 489,90 489,91 489,92 489,93 489,94 488,95 488,96 485,96 484,97 484,98 484,99 484,100 484,101 484,102 483,102 482,103 482,104 482,104 481,105 481,105 477,106 477,106 475,107 475,107 462,108 462,108 460,108 458,109 457,109 456,110 456,110 454,111 453,111 449,112 439,113 439,113 438,114 438,115 438,116 438,116 437,117 436,118 436,119 436,120 436,121 436,122 436,123 435,124 435,125 435,126 435,127 435,128 435,129 435,130 435,131 435,131 434,131 433,132 433,133 433,134 433,134 432,135 432,136 432,137 432,138 432,138 431,139 431,140 431,141 431,142 431,142 430,143 430,144 430,144 428,145 428,145 427,146 427,147 427,148 426,149 426,149 425,150 423,150 341,151 340,152 339,153 339,154 339,154 338,155 338,156 338,157 338,158 337,158 336,159 336,160 336,161 336,162 336,163 334,164 333,165 331,165 330,166 330,167 330,168 330,169 328,170 328,171 328,172 328,173 328,174 328,175 326,176 326,177 326,178 325,179 325,180 325,181 325,182 325,182 324,183 322,184 322,184 317,185 316,186 315,187 315,188 315,189 315,190 314,191 314,192 314,193 314,194 314,195 313,196 313,197 313,198 313,199 313,200 313,201 312,202 312,203 312,204 311,205 311,206 311,207 311,208 311,209 310,210 310,211 310,212 310,213 310,214 310,215 310,216 310,217 310,218 310,219 310,220 309,221 309,222 309,223 309,223 308,224 308,225 308,226 308,227 308,228 308,229 308,230 308,231 308,232 308,233 308,234 308,235 308,236 308,236 307,237 307,238 307,239 307,240 307,241 307,242 306,243 305,244 305,245 305,246 305,247 305,248 304,249 304,250 304,251 304,252 304,253 304,254 304,255 303,256 303,257 303,258 303,259 303,260 303,261 303,262 303,262 302,263 302,264 302,265 302,266 302,267 302,268 302,269 302,270 302,271 302,272 302,273 302,274 302,275 301,276 301,277 301,278 301,279 301,280 301,281 301,282 301,283 301,284 301,285 301,286 301,287 300,288 300,289 300,290 300,291 300,292 300,293 300,294 300,295 300,296 300,296 299,297 299,298 299,299 299,300 299,301 299,302 298,303 298,304 298,305 298,306 298,307 297,308 297,309 297,309 296,310 295,311 295,312 295,313 295,314 295,315 295,316 295,317 295,317 294,318 294,318 293,319 293,319 292,320 292,321 292,322 292,323 292,324 292,324 291,325 291,326 291,327 290,328 290,329 290,330 290,331 290,332 289,333 289,334 289,335 289,336 289,337 289,338 289,339 289,340 289,341 288,342 288,342 287,343 287,344 287,345 287,346 287,347 287,347 286,348 286,349 286,349 285,350 285,351 285,352 284,353 284,354 284,355 283,356 283,357 283,357 282,358 282,359 282,360 282,361 282,362 281,363 281,364 281,365 281,365 280,366 280,367 280,368 280,369 280,370 280,371 280,372 280,372 279,373 279,374 279,375 279,375 278,376 278,377 278,378 278,378 277,379 277,380 277,381 277,382 277,383 276,384 276,385 276,386 276,387 276,388 275,389 275,390 275,391 275,392 275,392 274,393 274,394 273,395 273,396 273,396 272,397 272,398 272,399 272,400 272,400 271,401 271,402 271,403 270,404 270,405 270,406 270,407 270,408 270,408 269,409 269,410 269,411 269,411 268,412 268,413 268,414 267,415 267,415 266,416 266,417 266,417 265,418 265,419 265,420 265,421 265,421 264,422 264,423 264,423 263,424 262,425 261,426 261,427 261,428 260,429 260,430 259,431 259,432 259,432 258,433 258,434 258,434 257,435 257,436 257,436 256,437 256,438 256,439 256,440 256,440 255,441 254,442 253,443 253,444 253,445 253,445 252,446 252,447 252,448 252,448 251,449 251,450 251,451 251,451 250,452 250,453 250,453 249,454 249,454 248,455 248,455 247,456 247,457 247,458 247,459 247,460 247,460 246,461 244,461 243,462 243,463 242,464 242,464 241,465 239,466 239,467 239,468 239,469 238,470 238,471 238,472 237,473 236,474 236,475 236,476 236,477 236,478 236,479 236,479 235,480 235,481 235,482 234,483 234,483 233,484 233,485 233,486 233,487 232,488 232,489 232,490 232,490 231,491 230,492 229,492 227,493 227,494 227,494 226,495 225,496 225,496 224,497 223,498 223,498 222,499 222,500 222,501 221,502 221,503 221,504 220,505 220,506 220,507 220,508 219,508 218,509 218,510 218,511 217,512 217,512 216,513 216,514 216,515 216,516 215,517 215,518 215,519 215,520 215,521 215,522 214,523 214,524 214,525 213,526 213,526 212,527 212,528 212,529 212,529 211,530 210,531 210,532 210,533 210,534 210,535 210,536 210,537 210,538 209,539 209,540 208,541 208,542 207,543 207,544 207,545 207,546 207,547 207,548 207,548 206,549 206,550 206,551 206,552 206,553 206,554 206,555 206,556 206,557 206,557 205,558 205,558 204,559 204,559 203,560 203,561 203,561 202,562 202,563 202,564 202,565 201,566 201,567 201,568 201,568 200,569 199,570 199,570 198,571 198,572 198,573 198,574 198,575 197,576 197,577 197,577 196,578 194,579 194,580 193,581 193,582 193,583 193,583 192,584 192,585 192,586 192,587 192,587 191,588 191,589 191,590 191,590 190,591 190,592 190,593 190,594 189,595 189,596 189,597 188,598 188,599 188,600 187,601 187,601 186,602 186,603 186,603 185,604 185,605 185,606 185,607 185,608 185,609 184,610 183,611 181,612 181,613 181,614 181,615 181,616 180,617 180,618 180,619 180,619 179,620 179,621 177,622 177,622 176,623 174,624 174,625 174,625 173,626 173,627 173,628 172,629 172,629 169,630 169,631 168,631 166,632 166,633 166,633 165,634 165,635 160,635 155,636 155,637 154,638 154,639 154,640 154,640 149,641 148,642 148,642 143,643 143,643 142,644 142,645 142,646 142,646 140,647 140,648 140,649 140,649 139,650 139,651 138,652 138,652 137,653 137,654 137,655 137,656 137,657 137,658 137,659 137,660 137,661 137,662 137,662 134,663 134,664 128,665 128,666 128,667 128,668 124,669 124,669 123,670 123,671 123,672 123,672 122,673 122,674 119,675 119,675 118,676 118,677 118,678 118,679 118,679 117,680 117,681 111,682 111,682 110,683 110,684 110,685 105,686 105,686 100,687 94,688 94,688 93,689 93,690 93,691 86,692 86,692 76,693 76,694 72,695 72,695 65,696 65,697 64,698 64,698 40,699 40,699 40"/></g>
</svg>
