<?xml version="1.0" standalone="no"?>
<!DOCTYPE svg PUBLIC "-//W3C//DTD SVG 1.1//EN"
"http://www.w3.org/Graphics/SVG/1.1/DTD/svg11.dtd">
<svg xmlns="http://www.w3.org/2000/svg"
width="765" height="575" >
<g>
<line x1="40" y1="40"  x2="40" y2="500" style=" stroke: black;"/>
<text x="5" y="12" style="font-family: monospace; font-size: 10px;">nb. groups</text>
<line x1="40" y1="500"  x2="700" y2="500" style=" stroke: black;"/>
<text x="540" y="550" style="font-family: monospace; font-size: 10px;">prior intraspecific divergence (P)</text>
<line x1="37" y1="500"  x2="40" y2="500" style=" stroke: black;"/>
<text x="17" y="495" style="font-family: monospace; font-size: 10px;">0</text>
<line x1="37" y1="454"  x2="40" y2="454" style=" stroke: black;"/>
<text x="17" y="449" style="font-family: monospace; font-size: 10px;">1</text>
<line x1="37" y1="408"  x2="40" y2="408" style=" stroke: black;"/>
<text x="17" y="403" style="font-family: monospace; font-size: 10px;">2</text>
<line x1="37" y1="362"  x2="40" y2="362" style=" stroke: black;"/>
<text x="17" y="357" style="font-family: monospace; font-size: 10px;">3</text>
<line x1="37" y1="316"  x2="40" y2="316" style=" stroke: black;"/>
<text x="17" y="311" style="font-family: monospace; font-size: 10px;">4</text>
<line x1="37" y1="270"  x2="40" y2="270" style=" stroke: black;"/>
<text x="17" y="265" style="font-family: monospace; font-size: 10px;">5</text>
<line x1="37" y1="224"  x2="40" y2="224" style=" stroke: black;"/>
<text x="17" y="219" style="font-family: monospace; font-size: 10px;">6</text>
<line x1="37" y1="178"  x2="40" y2="178" style=" stroke: black;"/>
<text x="17" y="173" style="font-family: monospace; font-size: 10px;">7</text>
<line x1="37" y1="132"  x2="40" y2="132" style=" stroke: black;"/>
<text x="17" y="127" style="font-family: monospace; font-size: 10px;">8</text>
<line x1="37" y1="86"  x2="40" y2="86" style=" stroke: black;"/>
<text x="17" y="81" style="font-family: monospace; font-size: 10px;">9</text>
<line x1="37" y1="40"  x2="40" y2="40" style=" stroke: black;"/>
<text x="17" y="35" style="font-family: monospace; font-size: 10px;">10</text>
<line x1="-2147483648" y1="500"  x2="-2147483648" y2="503" style=" stroke: black;"/>
<rect x="640" y="20" width="5" height="5" fill= "#D82424" />
<text x="648" y="25" style="font-family: monospace; font-size: 10px;">Recursive Partition</text>
<rect x="640" y="40" width="5" height="5" fill= "#EBE448" />
<text x="648" y="45" style="font-family: monospace; font-size: 10px;">Initial Partition</text>
<rect x="-2147483648" y="454" width="5" height="5" fill= "#D82424" />
<line x1="-2147483648" y1="500"  x2="-2147483648" y2="505" style=" stroke: black;"/>
<text x="2147483643" y="505" transform="rotate(90,2147483643,505)" style="font-family: monospace; font-size: 10px;">0.0010</text>
<rect x="-2147483648" y="500" width="5" height="5" fill= "#EBE448" />
</g>
</svg>
