<?xml version="1.0" standalone="no"?>
<!DOCTYPE svg PUBLIC "-//W3C//DTD SVG 1.1//EN"
"http://www.w3.org/Graphics/SVG/1.1/DTD/svg11.dtd">
<svg xmlns="http://www.w3.org/2000/svg"
width="765" height="575" >
<g>
<line x1="40" y1="40"  x2="40" y2="500" style=" stroke: black;"/>
<text x="5" y="12" style="font-family: monospace; font-size: 10px;">nb. groups</text>
<line x1="40" y1="500"  x2="700" y2="500" style=" stroke: black;"/>
<text x="540" y="550" style="font-family: monospace; font-size: 10px;">prior intraspecific divergence (P)</text>
<line x1="37" y1="500"  x2="40" y2="500" style=" stroke: black;"/>
<text x="17" y="495" style="font-family: monospace; font-size: 10px;">0</text>
<line x1="37" y1="458"  x2="40" y2="458" style=" stroke: black;"/>
<text x="17" y="453" style="font-family: monospace; font-size: 10px;">10</text>
<line x1="37" y1="416"  x2="40" y2="416" style=" stroke: black;"/>
<text x="17" y="411" style="font-family: monospace; font-size: 10px;">20</text>
<line x1="37" y1="374"  x2="40" y2="374" style=" stroke: black;"/>
<text x="17" y="369" style="font-family: monospace; font-size: 10px;">30</text>
<line x1="37" y1="332"  x2="40" y2="332" style=" stroke: black;"/>
<text x="17" y="327" style="font-family: monospace; font-size: 10px;">40</text>
<line x1="37" y1="290"  x2="40" y2="290" style=" stroke: black;"/>
<text x="17" y="285" style="font-family: monospace; font-size: 10px;">50</text>
<line x1="37" y1="249"  x2="40" y2="249" style=" stroke: black;"/>
<text x="17" y="244" style="font-family: monospace; font-size: 10px;">60</text>
<line x1="37" y1="207"  x2="40" y2="207" style=" stroke: black;"/>
<text x="17" y="202" style="font-family: monospace; font-size: 10px;">70</text>
<line x1="37" y1="165"  x2="40" y2="165" style=" stroke: black;"/>
<text x="17" y="160" style="font-family: monospace; font-size: 10px;">80</text>
<line x1="37" y1="123"  x2="40" y2="123" style=" stroke: black;"/>
<text x="17" y="118" style="font-family: monospace; font-size: 10px;">90</text>
<line x1="37" y1="81"  x2="40" y2="81" style=" stroke: black;"/>
<text x="17" y="76" style="font-family: monospace; font-size: 10px;">100</text>
<line x1="37" y1="40"  x2="40" y2="40" style=" stroke: black;"/>
<text x="17" y="35" style="font-family: monospace; font-size: 10px;">110</text>
<line x1="40" y1="500"  x2="40" y2="503" style=" stroke: black;"/>
<line x1="160" y1="500"  x2="160" y2="503" style=" stroke: black;"/>
<line x1="230" y1="500"  x2="230" y2="503" style=" stroke: black;"/>
<line x1="280" y1="500"  x2="280" y2="503" style=" stroke: black;"/>
<line x1="319" y1="500"  x2="319" y2="503" style=" stroke: black;"/>
<line x1="350" y1="500"  x2="350" y2="503" style=" stroke: black;"/>
<line x1="377" y1="500"  x2="377" y2="503" style=" stroke: black;"/>
<line x1="400" y1="500"  x2="400" y2="503" style=" stroke: black;"/>
<line x1="421" y1="500"  x2="421" y2="503" style=" stroke: black;"/>
<line x1="439" y1="500"  x2="439" y2="503" style=" stroke: black;"/>
<line x1="559" y1="500"  x2="559" y2="503" style=" stroke: black;"/>
<line x1="630" y1="500"  x2="630" y2="503" style=" stroke: black;"/>
<line x1="680" y1="500"  x2="680" y2="503" style=" stroke: black;"/>
<rect x="640" y="20" width="5" height="5" fill= "#D82424" />
<text x="648" y="25" style="font-family: monospace; font-size: 10px;">Recursive Partition</text>
<rect x="640" y="40" width="5" height="5" fill= "#EBE448" />
<text x="648" y="45" style="font-family: monospace; font-size: 10px;">Initial Partition</text>
<rect x="40" y="60" width="5" height="5" fill= "#D82424" />
<line x1="40" y1="500"  x2="40" y2="505" style=" stroke: black;"/>
<text x="35" y="505" transform="rotate(90,35,505)" style="font-family: monospace; font-size: 10px;">0.0010</text>
<rect x="40" y="265" width="5" height="5" fill= "#EBE448" />
<rect x="149" y="152" width="5" height="5" fill= "#D82424" />
<line x1="149" y1="500"  x2="149" y2="505" style=" stroke: black;"/>
<text x="144" y="505" transform="rotate(90,144,505)" style="font-family: monospace; font-size: 10px;">0.0019</text>
<rect x="149" y="265" width="5" height="5" fill= "#EBE448" />
<rect x="260" y="224" width="5" height="5" fill= "#D82424" />
<line x1="260" y1="500"  x2="260" y2="505" style=" stroke: black;"/>
<text x="255" y="505" transform="rotate(90,255,505)" style="font-family: monospace; font-size: 10px;">0.0036</text>
<rect x="260" y="265" width="5" height="5" fill= "#EBE448" />
<rect x="370" y="244" width="5" height="5" fill= "#D82424" />
<line x1="370" y1="500"  x2="370" y2="505" style=" stroke: black;"/>
<text x="365" y="505" transform="rotate(90,365,505)" style="font-family: monospace; font-size: 10px;">0.0067</text>
<rect x="370" y="265" width="5" height="5" fill= "#EBE448" />
<rect x="480" y="265" width="5" height="5" fill= "#D82424" />
<line x1="480" y1="500"  x2="480" y2="505" style=" stroke: black;"/>
<text x="475" y="505" transform="rotate(90,475,505)" style="font-family: monospace; font-size: 10px;">0.0126</text>
<rect x="480" y="265" width="5" height="5" fill= "#EBE448" />
<rect x="590" y="349" width="5" height="5" fill= "#D82424" />
<line x1="590" y1="500"  x2="590" y2="505" style=" stroke: black;"/>
<text x="585" y="505" transform="rotate(90,585,505)" style="font-family: monospace; font-size: 10px;">0.0238</text>
<rect x="590" y="353" width="5" height="5" fill= "#EBE448" />
<rect x="700" y="495" width="5" height="5" fill= "#D82424" />
<line x1="700" y1="500"  x2="700" y2="505" style=" stroke: black;"/>
<text x="695" y="505" transform="rotate(90,695,505)" style="font-family: monospace; font-size: 10px;">0.0448</text>
<rect x="700" y="495" width="5" height="5" fill= "#EBE448" />
</g>
</svg>
