<?xml version="1.0" standalone="no"?>
<!DOCTYPE svg PUBLIC "-//W3C//DTD SVG 1.1//EN"
"http://www.w3.org/Graphics/SVG/1.1/DTD/svg11.dtd">
<svg xmlns="http://www.w3.org/2000/svg"
width="745" height="545" >
<g>
<line x1="40" y1="40"  x2="40" y2="500" style=" stroke: black;"/>
<line x1="40" y1="500"  x2="700" y2="500" style=" stroke: black;"/>
<line x1="37" y1="454"  x2="40" y2="454" style=" stroke: black;"/>
<text x="8" y="454" style="font-family: monospace; font-size: 10px;">0.05</text>
<line x1="37" y1="408"  x2="40" y2="408" style=" stroke: black;"/>
<text x="8" y="408" style="font-family: monospace; font-size: 10px;">0.10</text>
<line x1="37" y1="362"  x2="40" y2="362" style=" stroke: black;"/>
<text x="8" y="362" style="font-family: monospace; font-size: 10px;">0.15</text>
<line x1="37" y1="316"  x2="40" y2="316" style=" stroke: black;"/>
<text x="8" y="316" style="font-family: monospace; font-size: 10px;">0.20</text>
<line x1="37" y1="270"  x2="40" y2="270" style=" stroke: black;"/>
<text x="8" y="270" style="font-family: monospace; font-size: 10px;">0.26</text>
<line x1="37" y1="224"  x2="40" y2="224" style=" stroke: black;"/>
<text x="8" y="224" style="font-family: monospace; font-size: 10px;">0.31</text>
<line x1="37" y1="178"  x2="40" y2="178" style=" stroke: black;"/>
<text x="8" y="178" style="font-family: monospace; font-size: 10px;">0.36</text>
<line x1="37" y1="132"  x2="40" y2="132" style=" stroke: black;"/>
<text x="8" y="132" style="font-family: monospace; font-size: 10px;">0.41</text>
<line x1="37" y1="86"  x2="40" y2="86" style=" stroke: black;"/>
<text x="8" y="86" style="font-family: monospace; font-size: 10px;">0.46</text>
<line x1="37" y1="40"  x2="40" y2="40" style=" stroke: black;"/>
<text x="8" y="40" style="font-family: monospace; font-size: 10px;">0.51</text>
<line x1="106" y1="500"  x2="106" y2="505" style=" stroke: black;"/>
<text x="106" y="505" transform="rotate(90,106,505)" style="font-family: monospace; font-size: 10px;">13338</text>
<line x1="172" y1="500"  x2="172" y2="505" style=" stroke: black;"/>
<text x="172" y="505" transform="rotate(90,172,505)" style="font-family: monospace; font-size: 10px;">26676</text>
<line x1="238" y1="500"  x2="238" y2="505" style=" stroke: black;"/>
<text x="238" y="505" transform="rotate(90,238,505)" style="font-family: monospace; font-size: 10px;">40014</text>
<line x1="304" y1="500"  x2="304" y2="505" style=" stroke: black;"/>
<text x="304" y="505" transform="rotate(90,304,505)" style="font-family: monospace; font-size: 10px;">53352</text>
<line x1="370" y1="500"  x2="370" y2="505" style=" stroke: black;"/>
<text x="370" y="505" transform="rotate(90,370,505)" style="font-family: monospace; font-size: 10px;">66690</text>
<line x1="436" y1="500"  x2="436" y2="505" style=" stroke: black;"/>
<text x="436" y="505" transform="rotate(90,436,505)" style="font-family: monospace; font-size: 10px;">80028</text>
<line x1="502" y1="500"  x2="502" y2="505" style=" stroke: black;"/>
<text x="502" y="505" transform="rotate(90,502,505)" style="font-family: monospace; font-size: 10px;">93366</text>
<line x1="568" y1="500"  x2="568" y2="505" style=" stroke: black;"/>
<text x="568" y="505" transform="rotate(90,568,505)" style="font-family: monospace; font-size: 10px;">106704</text>
<line x1="634" y1="500"  x2="634" y2="505" style=" stroke: black;"/>
<text x="634" y="505" transform="rotate(90,634,505)" style="font-family: monospace; font-size: 10px;">120042</text>
<line x1="700" y1="500"  x2="700" y2="505" style=" stroke: black;"/>
<text x="700" y="505" transform="rotate(90,700,505)" style="font-family: monospace; font-size: 10px;">133380</text>
<text x="705" y="490" style="font-family: monospace; font-size: 10px;">Rank</text>
<text x="5" y="15" style="font-family: monospace; font-size: 10px;">Dist. value</text>
<polyline style="stroke: #D82424; stroke-width:1;fill: none;"  points="40 500,40 498,41 498,42 498,42 497,43 496,44 496,44 495,45 495,46 495,47 495,47 494,48 494,48 493,49 493,50 493,50 492,51 492,52 492,52 491,53 491,53 490,54 490,54 489,55 489,56 489,56 488,57 488,57 487,58 487,58 486,58 485,59 485,60 485,60 484,61 484,61 483,62 483,62 482,63 482,63 481,64 481,65 481,65 480,66 480,67 480,67 479,68 479,69 479,69 478,70 478,70 477,71 477,71 476,72 476,73 476,73 475,74 475,74 474,75 474,75 473,75 472,76 472,76 471,76 470,76 469,77 469,77 468,77 467,77 466,78 466,78 465,78 464,79 464,79 463,80 463,80 462,80 461,81 461,82 461,83 461,83 460,83 459,84 459,85 459,86 459,86 458,87 458,88 458,88 457,88 456,89 456,90 456,90 455,90 454,91 454,92 454,92 453,92 452,92 451,93 451,93 450,93 449,93 448,94 448,94 447,94 446,94 445,95 445,95 444,95 443,95 442,96 442,96 441,96 440,96 439,97 439,97 438,97 437,98 437,98 436,98 435,99 435,99 434,100 434,100 433,100 432,101 432,101 431,101 430,102 430,102 429,103 429,103 428,103 427,104 427,104 426,105 426,105 425,105 424,106 424,106 423,106 422,107 422,107 421,108 421,108 420,108 419,109 419,109 418,110 418,110 417,111 417,111 416,112 416,112 415,113 415,113 414,114 414,114 413,115 413,115 412,116 412,116 411,117 411,118 411,118 410,119 410,120 410,120 409,121 409,122 409,122 408,123 408,124 408,125 408,125 407,126 407,127 407,128 407,129 407,129 406,130 406,131 406,132 406,133 406,133 405,134 405,135 405,136 405,137 405,137 404,138 404,139 404,140 404,141 404,142 404,143 404,144 404,144 403,145 403,146 403,147 403,148 403,148 402,149 402,150 402,151 402,152 402,153 402,154 402,155 402,156 402,156 401,157 401,158 401,159 401,160 401,161 401,162 401,163 401,163 400,164 400,165 400,166 400,167 400,168 400,169 400,170 400,171 400,171 399,172 399,173 399,174 399,175 399,176 399,177 399,178 399,179 399,179 398,180 398,181 398,182 398,183 398,184 398,185 398,186 398,187 398,187 397,188 397,189 397,190 397,191 397,192 397,193 397,194 397,195 397,196 397,197 397,198 397,198 396,199 396,200 396,201 396,202 396,203 396,204 396,204 395,205 395,206 395,207 395,208 395,209 395,210 395,211 395,212 395,213 395,214 395,215 395,216 395,217 395,218 395,218 394,219 394,220 394,221 394,222 394,223 394,224 394,224 393,225 393,226 393,227 393,228 393,229 393,230 393,231 393,232 393,233 393,234 393,235 393,236 393,237 393,237 392,238 392,239 392,240 392,241 392,242 392,243 392,244 392,245 391,246 391,247 391,248 391,249 391,250 391,251 391,252 391,253 391,254 391,255 391,256 391,257 391,257 390,258 390,259 390,260 390,261 390,262 390,263 390,264 390,265 390,266 390,267 390,267 389,268 389,269 389,270 389,271 389,272 389,273 389,274 389,275 389,276 389,277 389,278 389,279 389,280 389,280 388,281 388,282 388,283 388,284 388,285 388,286 388,287 388,288 388,289 388,290 388,291 388,292 388,292 387,293 387,294 387,295 387,296 387,297 387,298 387,299 387,300 387,301 387,302 387,303 387,303 386,304 386,305 386,306 386,307 386,308 386,309 386,310 386,311 386,312 386,313 386,314 386,315 386,316 386,316 385,317 385,318 385,319 385,320 385,321 385,322 385,323 385,324 385,325 385,326 385,326 384,327 384,328 384,329 384,330 384,331 384,332 384,333 384,334 384,335 384,336 384,337 384,338 384,339 384,340 384,341 384,341 383,342 383,343 383,344 383,345 383,346 383,347 383,348 383,349 383,350 383,350 382,351 382,352 382,353 382,354 382,355 382,356 382,357 382,358 382,359 382,360 382,361 382,362 382,363 382,363 381,364 381,365 381,366 381,367 381,368 381,369 381,370 381,371 381,372 381,373 381,374 381,374 380,375 380,376 380,377 380,378 380,379 380,380 380,381 380,382 380,383 380,384 380,385 380,385 379,386 379,387 379,388 379,389 379,390 379,391 379,392 379,393 379,394 379,395 379,396 379,397 379,397 378,398 378,399 378,400 378,401 378,402 378,403 378,404 378,405 378,406 378,407 378,408 378,408 377,409 377,410 377,411 377,412 377,413 377,414 377,415 377,416 377,416 376,417 376,418 376,419 376,420 376,421 376,422 376,423 376,424 376,425 376,426 376,426 375,427 375,428 375,429 375,430 375,431 375,432 375,433 375,434 375,435 375,436 375,437 375,437 374,438 374,439 374,440 374,441 374,442 374,443 374,444 374,444 373,445 373,446 373,447 373,448 373,449 373,450 373,451 373,452 373,453 373,453 372,454 372,455 372,456 372,457 372,458 372,459 372,460 372,461 372,462 372,463 372,464 372,464 371,465 371,466 371,467 371,468 371,469 371,470 371,471 371,471 370,472 370,473 370,474 370,475 370,476 370,477 370,478 370,479 370,479 369,480 369,481 369,482 369,483 369,484 369,485 369,486 369,487 369,488 369,489 369,490 369,490 368,491 368,492 368,493 368,494 368,495 368,496 368,497 368,497 367,498 367,499 367,500 367,501 367,502 367,503 367,504 367,504 366,505 366,506 366,507 366,508 366,509 366,510 366,511 366,512 366,513 366,514 366,514 365,515 365,516 365,517 365,518 365,519 365,520 365,521 365,522 365,522 364,523 364,524 364,525 364,526 364,527 364,528 364,528 363,529 363,530 363,531 363,532 363,533 363,534 363,535 363,536 363,536 362,537 362,538 362,539 362,540 362,541 362,542 362,543 362,543 361,544 361,545 361,546 361,547 361,548 361,549 361,549 360,550 360,551 360,552 360,553 360,554 360,555 359,556 359,557 359,558 359,559 359,560 359,561 359,561 358,562 358,563 358,564 358,565 358,566 358,566 357,567 357,568 357,569 357,570 357,571 357,571 356,572 356,573 356,574 356,575 356,576 356,577 356,578 356,578 355,579 355,580 355,581 355,582 355,582 354,583 354,584 354,585 354,586 354,587 354,588 354,588 353,589 353,590 353,591 353,592 353,593 353,593 352,594 352,595 352,596 352,597 352,597 351,598 351,599 351,600 351,601 351,602 351,602 350,603 350,604 350,605 350,606 350,606 349,607 349,608 349,609 349,610 349,610 348,611 348,612 348,613 348,614 348,615 348,615 347,616 347,617 347,618 347,619 347,619 346,620 346,621 346,622 346,623 346,623 345,624 345,625 345,626 345,626 344,627 344,628 344,629 344,630 344,630 343,631 343,632 343,633 343,634 343,634 342,635 342,636 342,637 342,637 341,638 341,639 341,640 341,641 341,641 340,642 340,643 340,644 340,644 339,645 339,646 339,647 339,648 339,648 338,649 338,650 338,650 337,651 337,652 337,653 337,653 336,654 336,655 336,656 336,656 335,657 335,658 335,658 334,659 334,660 334,660 333,661 333,662 333,663 333,663 332,664 332,665 332,666 332,666 331,667 331,667 330,668 330,669 330,669 329,670 329,671 329,672 329,672 328,673 328,673 327,674 327,674 326,675 326,676 326,676 325,677 325,678 325,678 324,679 324,679 323,680 323,680 322,681 322,682 322,682 321,682 320,683 320,683 319,684 319,684 318,685 318,685 317,686 317,686 316,687 316,687 315,688 315,688 314,688 313,689 313,689 312,690 312,690 311,691 311,691 310,691 309,692 309,692 308,693 308,693 307,693 306,693 305,694 305,694 304,694 303,695 303,695 302,695 301,696 301,696 300,696 299,696 298,696 297,697 297,697 296,697 295,697 294,697 293,697 292,698 292,698 291,698 290,698 289,698 288,698 287,698 286,698 285,698 284,698 282,698 281,698 280,698 279,698 278,698 277,698 276,698 275,698 274,698 273,698 272,698 271,698 269,698 268,698 267,698 266,698 265,699 265,699 264,699 263,699 261,699 260,699 259,699 258,699 257,699 255,699 254,699 253,699 249,699 236,699 229,699 226,699 223,699 222,699 221,699 219,699 218,699 214,699 201,699 175,699 170,699 160,699 143,699 136,699 115,699 108,699 70,699 40,699 40"/></g>
</svg>
