<?xml version="1.0" standalone="no"?>
<!DOCTYPE svg PUBLIC "-//W3C//DTD SVG 1.1//EN"
"http://www.w3.org/Graphics/SVG/1.1/DTD/svg11.dtd">
<svg xmlns="http://www.w3.org/2000/svg"
width="765" height="575" >
<g>
<line x1="40" y1="40"  x2="40" y2="500" style=" stroke: black;"/>
<text x="5" y="12" style="font-family: monospace; font-size: 10px;">nb. groups</text>
<line x1="40" y1="500"  x2="700" y2="500" style=" stroke: black;"/>
<text x="540" y="550" style="font-family: monospace; font-size: 10px;">prior intraspecific divergence (P)</text>
<line x1="37" y1="500"  x2="40" y2="500" style=" stroke: black;"/>
<text x="17" y="495" style="font-family: monospace; font-size: 10px;">0</text>
<line x1="37" y1="461"  x2="40" y2="461" style=" stroke: black;"/>
<text x="17" y="456" style="font-family: monospace; font-size: 10px;">10</text>
<line x1="37" y1="423"  x2="40" y2="423" style=" stroke: black;"/>
<text x="17" y="418" style="font-family: monospace; font-size: 10px;">20</text>
<line x1="37" y1="385"  x2="40" y2="385" style=" stroke: black;"/>
<text x="17" y="380" style="font-family: monospace; font-size: 10px;">30</text>
<line x1="37" y1="346"  x2="40" y2="346" style=" stroke: black;"/>
<text x="17" y="341" style="font-family: monospace; font-size: 10px;">40</text>
<line x1="37" y1="308"  x2="40" y2="308" style=" stroke: black;"/>
<text x="17" y="303" style="font-family: monospace; font-size: 10px;">50</text>
<line x1="37" y1="270"  x2="40" y2="270" style=" stroke: black;"/>
<text x="17" y="265" style="font-family: monospace; font-size: 10px;">60</text>
<line x1="37" y1="231"  x2="40" y2="231" style=" stroke: black;"/>
<text x="17" y="226" style="font-family: monospace; font-size: 10px;">70</text>
<line x1="37" y1="193"  x2="40" y2="193" style=" stroke: black;"/>
<text x="17" y="188" style="font-family: monospace; font-size: 10px;">80</text>
<line x1="37" y1="155"  x2="40" y2="155" style=" stroke: black;"/>
<text x="17" y="150" style="font-family: monospace; font-size: 10px;">90</text>
<line x1="37" y1="116"  x2="40" y2="116" style=" stroke: black;"/>
<text x="17" y="111" style="font-family: monospace; font-size: 10px;">100</text>
<line x1="37" y1="78"  x2="40" y2="78" style=" stroke: black;"/>
<text x="17" y="73" style="font-family: monospace; font-size: 10px;">110</text>
<line x1="37" y1="40"  x2="40" y2="40" style=" stroke: black;"/>
<text x="17" y="35" style="font-family: monospace; font-size: 10px;">120</text>
<line x1="40" y1="500"  x2="40" y2="503" style=" stroke: black;"/>
<line x1="167" y1="500"  x2="167" y2="503" style=" stroke: black;"/>
<line x1="242" y1="500"  x2="242" y2="503" style=" stroke: black;"/>
<line x1="295" y1="500"  x2="295" y2="503" style=" stroke: black;"/>
<line x1="336" y1="500"  x2="336" y2="503" style=" stroke: black;"/>
<line x1="370" y1="500"  x2="370" y2="503" style=" stroke: black;"/>
<line x1="398" y1="500"  x2="398" y2="503" style=" stroke: black;"/>
<line x1="423" y1="500"  x2="423" y2="503" style=" stroke: black;"/>
<line x1="444" y1="500"  x2="444" y2="503" style=" stroke: black;"/>
<line x1="464" y1="500"  x2="464" y2="503" style=" stroke: black;"/>
<line x1="592" y1="500"  x2="592" y2="503" style=" stroke: black;"/>
<line x1="666" y1="500"  x2="666" y2="503" style=" stroke: black;"/>
<rect x="640" y="20" width="5" height="5" fill= "#D82424" />
<text x="648" y="25" style="font-family: monospace; font-size: 10px;">Recursive Partition</text>
<rect x="640" y="40" width="5" height="5" fill= "#EBE448" />
<text x="648" y="45" style="font-family: monospace; font-size: 10px;">Initial Partition</text>
<rect x="40" y="74" width="5" height="5" fill= "#D82424" />
<line x1="40" y1="500"  x2="40" y2="505" style=" stroke: black;"/>
<text x="35" y="505" transform="rotate(90,35,505)" style="font-family: monospace; font-size: 10px;">0.0010</text>
<rect x="40" y="273" width="5" height="5" fill= "#EBE448" />
<rect x="134" y="143" width="5" height="5" fill= "#D82424" />
<line x1="134" y1="500"  x2="134" y2="505" style=" stroke: black;"/>
<text x="129" y="505" transform="rotate(90,129,505)" style="font-family: monospace; font-size: 10px;">0.0017</text>
<rect x="134" y="273" width="5" height="5" fill= "#EBE448" />
<rect x="228" y="166" width="5" height="5" fill= "#D82424" />
<line x1="228" y1="500"  x2="228" y2="505" style=" stroke: black;"/>
<text x="223" y="505" transform="rotate(90,223,505)" style="font-family: monospace; font-size: 10px;">0.0028</text>
<rect x="228" y="273" width="5" height="5" fill= "#EBE448" />
<rect x="322" y="224" width="5" height="5" fill= "#D82424" />
<line x1="322" y1="500"  x2="322" y2="505" style=" stroke: black;"/>
<text x="317" y="505" transform="rotate(90,317,505)" style="font-family: monospace; font-size: 10px;">0.0046</text>
<rect x="322" y="273" width="5" height="5" fill= "#EBE448" />
<rect x="417" y="239" width="5" height="5" fill= "#D82424" />
<line x1="417" y1="500"  x2="417" y2="505" style=" stroke: black;"/>
<text x="412" y="505" transform="rotate(90,412,505)" style="font-family: monospace; font-size: 10px;">0.0077</text>
<rect x="417" y="273" width="5" height="5" fill= "#EBE448" />
<rect x="511" y="273" width="5" height="5" fill= "#D82424" />
<line x1="511" y1="500"  x2="511" y2="505" style=" stroke: black;"/>
<text x="506" y="505" transform="rotate(90,506,505)" style="font-family: monospace; font-size: 10px;">0.0129</text>
<rect x="511" y="273" width="5" height="5" fill= "#EBE448" />
<rect x="605" y="339" width="5" height="5" fill= "#D82424" />
<line x1="605" y1="500"  x2="605" y2="505" style=" stroke: black;"/>
<text x="600" y="505" transform="rotate(90,600,505)" style="font-family: monospace; font-size: 10px;">0.0215</text>
<rect x="605" y="342" width="5" height="5" fill= "#EBE448" />
<rect x="700" y="496" width="5" height="5" fill= "#D82424" />
<line x1="700" y1="500"  x2="700" y2="505" style=" stroke: black;"/>
<text x="695" y="505" transform="rotate(90,695,505)" style="font-family: monospace; font-size: 10px;">0.0359</text>
<rect x="700" y="496" width="5" height="5" fill= "#EBE448" />
</g>
</svg>
