<?xml version="1.0" standalone="no"?>
<!DOCTYPE svg PUBLIC "-//W3C//DTD SVG 1.1//EN"
"http://www.w3.org/Graphics/SVG/1.1/DTD/svg11.dtd">
<svg xmlns="http://www.w3.org/2000/svg"
width="745" height="545" >
<g>
<line x1="40" y1="40"  x2="40" y2="500" style=" stroke: black;"/>
<line x1="40" y1="500"  x2="700" y2="500" style=" stroke: black;"/>
<line x1="37" y1="454"  x2="40" y2="454" style=" stroke: black;"/>
<text x="8" y="454" style="font-family: monospace; font-size: 10px;">0.05</text>
<line x1="37" y1="408"  x2="40" y2="408" style=" stroke: black;"/>
<text x="8" y="408" style="font-family: monospace; font-size: 10px;">0.10</text>
<line x1="37" y1="362"  x2="40" y2="362" style=" stroke: black;"/>
<text x="8" y="362" style="font-family: monospace; font-size: 10px;">0.15</text>
<line x1="37" y1="316"  x2="40" y2="316" style=" stroke: black;"/>
<text x="8" y="316" style="font-family: monospace; font-size: 10px;">0.20</text>
<line x1="37" y1="270"  x2="40" y2="270" style=" stroke: black;"/>
<text x="8" y="270" style="font-family: monospace; font-size: 10px;">0.26</text>
<line x1="37" y1="224"  x2="40" y2="224" style=" stroke: black;"/>
<text x="8" y="224" style="font-family: monospace; font-size: 10px;">0.31</text>
<line x1="37" y1="178"  x2="40" y2="178" style=" stroke: black;"/>
<text x="8" y="178" style="font-family: monospace; font-size: 10px;">0.36</text>
<line x1="37" y1="132"  x2="40" y2="132" style=" stroke: black;"/>
<text x="8" y="132" style="font-family: monospace; font-size: 10px;">0.41</text>
<line x1="37" y1="86"  x2="40" y2="86" style=" stroke: black;"/>
<text x="8" y="86" style="font-family: monospace; font-size: 10px;">0.46</text>
<line x1="37" y1="40"  x2="40" y2="40" style=" stroke: black;"/>
<text x="8" y="40" style="font-family: monospace; font-size: 10px;">0.51</text>
<line x1="106" y1="500"  x2="106" y2="505" style=" stroke: black;"/>
<text x="106" y="505" transform="rotate(90,106,505)" style="font-family: monospace; font-size: 10px;">13184</text>
<line x1="172" y1="500"  x2="172" y2="505" style=" stroke: black;"/>
<text x="172" y="505" transform="rotate(90,172,505)" style="font-family: monospace; font-size: 10px;">26368</text>
<line x1="238" y1="500"  x2="238" y2="505" style=" stroke: black;"/>
<text x="238" y="505" transform="rotate(90,238,505)" style="font-family: monospace; font-size: 10px;">39552</text>
<line x1="304" y1="500"  x2="304" y2="505" style=" stroke: black;"/>
<text x="304" y="505" transform="rotate(90,304,505)" style="font-family: monospace; font-size: 10px;">52736</text>
<line x1="370" y1="500"  x2="370" y2="505" style=" stroke: black;"/>
<text x="370" y="505" transform="rotate(90,370,505)" style="font-family: monospace; font-size: 10px;">65920</text>
<line x1="436" y1="500"  x2="436" y2="505" style=" stroke: black;"/>
<text x="436" y="505" transform="rotate(90,436,505)" style="font-family: monospace; font-size: 10px;">79104</text>
<line x1="502" y1="500"  x2="502" y2="505" style=" stroke: black;"/>
<text x="502" y="505" transform="rotate(90,502,505)" style="font-family: monospace; font-size: 10px;">92288</text>
<line x1="568" y1="500"  x2="568" y2="505" style=" stroke: black;"/>
<text x="568" y="505" transform="rotate(90,568,505)" style="font-family: monospace; font-size: 10px;">105472</text>
<line x1="634" y1="500"  x2="634" y2="505" style=" stroke: black;"/>
<text x="634" y="505" transform="rotate(90,634,505)" style="font-family: monospace; font-size: 10px;">118656</text>
<line x1="700" y1="500"  x2="700" y2="505" style=" stroke: black;"/>
<text x="700" y="505" transform="rotate(90,700,505)" style="font-family: monospace; font-size: 10px;">131840</text>
<text x="705" y="490" style="font-family: monospace; font-size: 10px;">Rank</text>
<text x="5" y="15" style="font-family: monospace; font-size: 10px;">Dist. value</text>
<polyline style="stroke: #D82424; stroke-width:1;fill: none;"  points="40 500,40 498,41 498,42 498,42 497,42 496,43 496,44 496,44 495,45 495,46 495,47 495,47 494,48 494,48 493,49 493,50 493,50 492,51 492,52 492,52 491,53 491,53 490,54 490,55 490,55 489,56 489,56 488,57 488,57 487,58 487,58 486,59 486,59 485,60 485,60 484,61 484,61 483,62 483,62 482,63 482,64 482,64 481,65 481,66 481,66 480,67 480,67 479,68 479,69 479,69 478,70 478,70 477,71 477,72 477,72 476,73 476,73 475,74 475,74 474,75 474,75 473,76 473,76 472,76 471,77 471,77 470,77 469,77 468,78 468,78 467,78 466,78 465,78 464,79 464,79 463,80 463,81 463,81 462,81 461,82 461,83 461,83 460,83 459,84 459,85 459,86 459,86 458,87 458,88 458,89 458,89 457,89 456,90 456,91 456,91 455,91 454,92 454,92 453,93 453,93 452,93 451,94 451,94 450,94 449,94 448,94 447,95 447,95 446,95 445,95 444,96 444,96 443,96 442,96 441,97 441,97 440,97 439,98 439,98 438,98 437,98 436,99 436,99 435,99 434,100 434,100 433,101 433,101 432,102 432,102 431,102 430,103 430,103 429,104 429,104 428,104 427,105 427,105 426,105 425,106 425,106 424,107 424,107 423,107 422,108 422,108 421,109 421,109 420,109 419,110 419,110 418,111 418,111 417,111 416,112 416,112 415,113 415,113 414,114 414,115 414,115 413,116 413,116 412,117 412,117 411,118 411,119 411,119 410,120 410,121 410,121 409,122 409,123 409,123 408,124 408,125 408,126 408,126 407,127 407,128 407,129 407,129 406,130 406,131 406,132 406,133 406,134 406,134 405,135 405,136 405,137 405,138 405,138 404,139 404,140 404,141 404,142 404,143 404,144 404,145 404,145 403,146 403,147 403,148 403,149 403,149 402,150 402,151 402,152 402,153 402,154 402,155 402,156 402,157 402,158 402,158 401,159 401,160 401,161 401,162 401,163 401,164 401,164 400,165 400,166 400,167 400,168 400,169 400,170 400,171 400,172 400,172 399,173 399,174 399,175 399,176 399,177 399,178 399,179 399,180 399,181 399,181 398,182 398,183 398,184 398,185 398,186 398,187 398,188 398,189 398,189 397,190 397,191 397,192 397,193 397,194 397,195 397,196 397,197 397,198 397,199 397,200 397,200 396,201 396,202 396,203 396,204 396,205 396,205 395,206 395,207 395,208 395,209 395,210 395,211 395,212 395,213 395,214 395,215 395,216 395,217 395,218 395,219 395,220 395,220 394,221 394,222 394,223 394,224 394,225 394,226 394,226 393,227 393,228 393,229 393,230 393,231 393,232 393,233 393,234 393,235 393,236 393,237 393,238 393,239 393,239 392,240 392,241 392,242 392,243 392,244 392,245 392,246 392,247 392,247 391,248 391,249 391,250 391,251 391,252 391,253 391,254 391,255 391,256 391,257 391,258 391,259 391,260 391,260 390,261 390,262 390,263 390,264 390,265 390,266 390,267 390,268 390,269 390,269 389,270 389,271 389,272 389,273 389,274 389,275 389,276 389,277 389,278 389,279 389,280 389,281 389,282 389,282 388,283 388,284 388,285 388,286 388,287 388,288 388,289 388,290 388,291 388,292 388,293 388,294 388,294 387,295 387,296 387,297 387,298 387,299 387,300 387,301 387,302 387,303 387,304 387,305 387,306 387,306 386,307 386,308 386,309 386,310 386,311 386,312 386,313 386,314 386,315 386,316 386,317 386,318 386,319 386,319 385,320 385,321 385,322 385,323 385,324 385,325 385,326 385,327 385,328 385,329 385,329 384,330 384,331 384,332 384,333 384,334 384,335 384,336 384,337 384,338 384,339 384,340 384,341 384,342 384,343 384,344 384,344 383,345 383,346 383,347 383,348 383,349 383,350 383,351 383,352 383,353 383,353 382,354 382,355 382,356 382,357 382,358 382,359 382,360 382,361 382,362 382,363 382,364 382,365 382,366 382,367 382,367 381,368 381,369 381,370 381,371 381,372 381,373 381,374 381,375 381,376 381,377 381,378 381,378 380,379 380,380 380,381 380,382 380,383 380,384 380,385 380,386 380,387 380,388 380,388 379,389 379,390 379,391 379,392 379,393 379,394 379,395 379,396 379,397 379,398 379,399 379,400 379,400 378,401 378,402 378,403 378,404 378,405 378,406 378,407 378,408 378,409 378,410 378,411 378,411 377,412 377,413 377,414 377,415 377,416 377,417 377,418 377,419 377,420 377,420 376,421 376,422 376,423 376,424 376,425 376,426 376,427 376,428 376,429 376,430 376,430 375,431 375,432 375,433 375,434 375,435 375,436 375,437 375,438 375,439 375,440 375,441 375,441 374,442 374,443 374,444 374,445 374,446 374,447 374,448 374,448 373,449 373,450 373,451 373,452 373,453 373,454 373,455 373,456 373,457 373,457 372,458 372,459 372,460 372,461 372,462 372,463 372,464 372,465 372,466 372,467 372,468 372,468 371,469 371,470 371,471 371,472 371,473 371,474 371,475 371,475 370,476 370,477 370,478 370,479 370,480 370,481 370,482 370,483 370,483 369,484 369,485 369,486 369,487 369,488 369,489 369,490 369,491 369,492 369,493 369,494 369,494 368,495 368,496 368,497 368,498 368,499 368,500 368,501 368,501 367,502 367,503 367,504 367,505 367,506 367,507 367,508 367,508 366,509 366,510 366,511 366,512 366,513 366,514 366,515 366,516 366,517 366,518 366,518 365,519 365,520 365,521 365,522 365,523 365,524 365,525 365,525 364,526 364,527 364,528 364,529 364,530 364,531 364,532 364,532 363,533 363,534 363,535 363,536 363,537 363,538 363,539 363,540 363,540 362,541 362,542 362,543 362,544 362,545 362,546 362,547 362,547 361,548 361,549 361,550 361,551 361,552 361,552 360,553 360,554 360,555 360,556 360,557 360,558 360,558 359,559 359,560 359,561 359,562 359,563 359,564 359,565 359,565 358,566 358,567 358,568 358,569 358,569 357,570 357,571 357,572 357,573 357,574 357,575 357,575 356,576 356,577 356,578 356,579 356,580 356,581 356,581 355,582 355,583 355,584 355,585 355,585 354,586 354,587 354,588 354,589 354,590 354,591 354,591 353,592 353,593 353,594 353,595 353,595 352,596 352,597 352,598 352,599 352,600 352,600 351,601 351,602 351,603 351,604 351,604 350,605 350,606 350,607 350,608 350,609 350,609 349,610 349,611 349,612 349,613 349,613 348,614 348,615 348,616 348,617 348,618 348,618 347,619 347,620 347,621 347,621 346,622 346,623 346,624 346,625 346,625 345,626 345,627 345,628 345,628 344,629 344,630 344,631 344,632 344,632 343,633 343,634 343,635 343,636 343,636 342,637 342,638 342,639 342,640 342,640 341,641 341,642 341,643 341,643 340,644 340,645 340,646 340,647 340,647 339,648 339,649 339,650 339,650 338,651 338,652 338,652 337,653 337,654 337,655 337,655 336,656 336,657 336,658 336,658 335,659 335,660 335,660 334,661 334,662 334,662 333,663 333,664 333,665 333,665 332,666 332,667 332,667 331,668 331,669 331,669 330,670 330,670 329,671 329,672 329,673 329,673 328,674 328,675 328,675 327,676 327,676 326,677 326,678 326,678 325,679 325,679 324,680 324,680 323,681 323,681 322,682 322,683 322,683 321,683 320,684 320,684 319,685 319,685 318,686 318,686 317,686 316,687 316,687 315,688 315,688 314,689 314,689 313,689 312,690 312,690 311,691 311,691 310,691 309,692 309,692 308,693 308,693 307,693 306,693 305,694 305,694 304,694 303,695 303,695 302,695 301,696 301,696 300,696 299,696 298,696 297,697 297,697 296,697 295,697 294,697 293,697 292,698 292,698 291,698 290,698 289,698 288,698 287,698 286,698 285,698 284,698 282,698 281,698 280,698 279,698 278,698 277,698 276,698 275,698 274,698 273,698 272,698 271,698 269,698 268,698 267,698 266,698 265,699 265,699 264,699 263,699 261,699 260,699 259,699 258,699 257,699 255,699 254,699 253,699 249,699 236,699 229,699 226,699 223,699 222,699 221,699 219,699 218,699 214,699 201,699 175,699 170,699 160,699 143,699 136,699 115,699 108,699 70,699 40,699 40"/></g>
</svg>
