<svg xmlns="http://www.w3.org/2000/svg" width="1920" height="810" style="border: 1px solid #cccccc;">
<line x1="20.000000" y1="10.000000" x2="203.200000" y2="10.000000" stroke="#31a354" stroke-width="3.000000" />
<text x="208.200000" y="16.000000" font-size="12" font-family="Arial;">0.1347501</text>
<line x1="20.000000" y1="30.000000" x2="443.229157" y2="30.000000" stroke="rgb(0.000000%,0.000000%,0.000000%)" stroke-width="3.000000" />
<text x="448.229157" y="34.000000" font-size="12" font-family="Arial;">BR_004</text>
<line x1="509.966844" y1="50.000000" x2="509.969361" y2="50.000000" stroke="rgb(88.152143%,0.000000%,0.000000%)" stroke-width="3.000000" />
<text x="514.969361" y="54.000000" font-size="12" font-family="Arial;">BR_075</text>
<line x1="581.721819" y1="70.000000" x2="584.469786" y2="70.000000" stroke="rgb(100.000000%,0.000000%,0.000000%)" stroke-width="3.000000" />
<text x="589.469786" y="74.000000" font-size="12" font-family="Arial;">BR_059</text>
<line x1="585.369169" y1="90.000000" x2="594.888730" y2="90.000000" stroke="rgb(100.000000%,0.000000%,0.000000%)" stroke-width="3.000000" />
<text x="599.888730" y="94.000000" font-size="12" font-family="Arial;">BR_054</text>
<line x1="585.369169" y1="110.000000" x2="585.371686" y2="110.000000" stroke="rgb(100.000000%,0.000000%,0.000000%)" stroke-width="3.000000" />
<text x="590.371686" y="114.000000" font-size="12" font-family="Arial;">BR_065</text>
<line x1="585.369169" y1="90.000000" x2="585.369169" y2="110.000000" stroke="rgb(100.000000%,0.000000%,0.000000%)" stroke-width="3.000000" />
<circle cx="585.369169" cy="100.000000" r="0.000000" fill="rgb(100.000000%,0.000000%,0.000000%)" stroke="rgb(100.000000%,0.000000%,0.000000%)" />
<line x1="581.721819" y1="100.000000" x2="585.369169" y2="100.000000" stroke="rgb(100.000000%,0.000000%,0.000000%)" stroke-width="3.000000" />

<line x1="581.721819" y1="70.000000" x2="581.721819" y2="100.000000" stroke="rgb(100.000000%,0.000000%,0.000000%)" stroke-width="3.000000" />
<circle cx="581.721819" cy="85.000000" r="0.000000" fill="rgb(100.000000%,0.000000%,0.000000%)" stroke="rgb(100.000000%,0.000000%,0.000000%)" />
<line x1="513.043466" y1="85.000000" x2="581.721819" y2="85.000000" stroke="rgb(98.291594%,0.000000%,0.000000%)" stroke-width="3.000000" />

<line x1="513.043466" y1="130.000000" x2="513.045982" y2="130.000000" stroke="rgb(98.291594%,0.000000%,0.000000%)" stroke-width="3.000000" />
<text x="518.045982" y="134.000000" font-size="12" font-family="Arial;">BR_074</text>
<line x1="513.043466" y1="85.000000" x2="513.043466" y2="130.000000" stroke="rgb(98.291594%,0.000000%,0.000000%)" stroke-width="3.000000" />
<circle cx="513.043466" cy="107.500000" r="0.000000" fill="rgb(98.291594%,0.000000%,0.000000%)" stroke="rgb(98.291594%,0.000000%,0.000000%)" />
<line x1="509.966844" y1="107.500000" x2="513.043466" y2="107.500000" stroke="rgb(88.152143%,0.000000%,0.000000%)" stroke-width="3.000000" />

<line x1="509.966844" y1="50.000000" x2="509.966844" y2="107.500000" stroke="rgb(88.152143%,0.000000%,0.000000%)" stroke-width="3.000000" />
<circle cx="509.966844" cy="78.750000" r="0.000000" fill="rgb(88.152143%,0.000000%,0.000000%)" stroke="rgb(88.152143%,0.000000%,0.000000%)" />
<line x1="284.580178" y1="78.750000" x2="509.966844" y2="78.750000" stroke="rgb(0.000000%,0.000000%,0.000000%)" stroke-width="3.000000" />

<line x1="651.467299" y1="150.000000" x2="651.469816" y2="150.000000" stroke="rgb(99.810435%,0.000000%,0.000000%)" stroke-width="3.000000" />
<text x="656.469816" y="154.000000" font-size="12" font-family="Arial;">BR_083</text>
<line x1="663.958260" y1="170.000000" x2="679.063041" y2="170.000000" stroke="rgb(100.000000%,0.000000%,0.000000%)" stroke-width="3.000000" />
<text x="684.063041" y="174.000000" font-size="12" font-family="Arial;">BR_091</text>
<line x1="663.960777" y1="190.000000" x2="663.963294" y2="190.000000" stroke="rgb(100.000000%,0.000000%,0.000000%)" stroke-width="3.000000" />
<text x="668.963294" y="194.000000" font-size="12" font-family="Arial;">BR_102</text>
<line x1="663.960777" y1="210.000000" x2="663.963294" y2="210.000000" stroke="rgb(100.000000%,0.000000%,0.000000%)" stroke-width="3.000000" />
<text x="668.963294" y="214.000000" font-size="12" font-family="Arial;">BR_015</text>
<line x1="663.960777" y1="190.000000" x2="663.960777" y2="210.000000" stroke="rgb(100.000000%,0.000000%,0.000000%)" stroke-width="3.000000" />
<circle cx="663.960777" cy="200.000000" r="0.000000" fill="rgb(100.000000%,0.000000%,0.000000%)" stroke="rgb(100.000000%,0.000000%,0.000000%)" />
<line x1="663.958260" y1="200.000000" x2="663.960777" y2="200.000000" stroke="rgb(100.000000%,0.000000%,0.000000%)" stroke-width="3.000000" />

<line x1="663.958260" y1="170.000000" x2="663.958260" y2="200.000000" stroke="rgb(100.000000%,0.000000%,0.000000%)" stroke-width="3.000000" />
<circle cx="663.958260" cy="185.000000" r="0.000000" fill="rgb(100.000000%,0.000000%,0.000000%)" stroke="rgb(100.000000%,0.000000%,0.000000%)" />
<line x1="651.467299" y1="185.000000" x2="663.958260" y2="185.000000" stroke="rgb(99.810435%,0.000000%,0.000000%)" stroke-width="3.000000" />

<line x1="651.467299" y1="150.000000" x2="651.467299" y2="185.000000" stroke="rgb(99.810435%,0.000000%,0.000000%)" stroke-width="3.000000" />
<circle cx="651.467299" cy="167.500000" r="0.000000" fill="rgb(99.810435%,0.000000%,0.000000%)" stroke="rgb(99.810435%,0.000000%,0.000000%)" />
<line x1="425.560760" y1="167.500000" x2="651.467299" y2="167.500000" stroke="rgb(0.000000%,0.000000%,0.000000%)" stroke-width="3.000000" />

<line x1="636.305502" y1="230.000000" x2="639.403838" y2="230.000000" stroke="rgb(100.000000%,0.000000%,0.000000%)" stroke-width="3.000000" />
<text x="644.403838" y="234.000000" font-size="12" font-family="Arial;">BR_030</text>
<line x1="636.308019" y1="250.000000" x2="639.408986" y2="250.000000" stroke="rgb(100.000000%,0.000000%,0.000000%)" stroke-width="3.000000" />
<text x="644.408986" y="254.000000" font-size="12" font-family="Arial;">BR_097</text>
<line x1="636.308019" y1="270.000000" x2="636.310536" y2="270.000000" stroke="rgb(100.000000%,0.000000%,0.000000%)" stroke-width="3.000000" />
<text x="641.310536" y="274.000000" font-size="12" font-family="Arial;">BR_039</text>
<line x1="636.308019" y1="250.000000" x2="636.308019" y2="270.000000" stroke="rgb(100.000000%,0.000000%,0.000000%)" stroke-width="3.000000" />
<circle cx="636.308019" cy="260.000000" r="0.000000" fill="rgb(100.000000%,0.000000%,0.000000%)" stroke="rgb(100.000000%,0.000000%,0.000000%)" />
<line x1="636.305502" y1="260.000000" x2="636.308019" y2="260.000000" stroke="rgb(100.000000%,0.000000%,0.000000%)" stroke-width="3.000000" />

<line x1="636.305502" y1="230.000000" x2="636.305502" y2="260.000000" stroke="rgb(100.000000%,0.000000%,0.000000%)" stroke-width="3.000000" />
<circle cx="636.305502" cy="245.000000" r="0.000000" fill="rgb(100.000000%,0.000000%,0.000000%)" stroke="rgb(100.000000%,0.000000%,0.000000%)" />
<line x1="636.006804" y1="245.000000" x2="636.305502" y2="245.000000" stroke="rgb(99.694172%,0.000000%,0.000000%)" stroke-width="3.000000" />

<line x1="644.977558" y1="290.000000" x2="644.980075" y2="290.000000" stroke="rgb(100.000000%,0.000000%,0.000000%)" stroke-width="3.000000" />
<text x="649.980075" y="294.000000" font-size="12" font-family="Arial;">BR_070</text>
<line x1="644.980075" y1="310.000000" x2="648.068718" y2="310.000000" stroke="rgb(100.000000%,0.000000%,0.000000%)" stroke-width="3.000000" />
<text x="653.068718" y="314.000000" font-size="12" font-family="Arial;">BR_066</text>
<line x1="644.980075" y1="330.000000" x2="644.982592" y2="330.000000" stroke="rgb(100.000000%,0.000000%,0.000000%)" stroke-width="3.000000" />
<text x="649.982592" y="334.000000" font-size="12" font-family="Arial;">BR_100</text>
<line x1="644.980075" y1="310.000000" x2="644.980075" y2="330.000000" stroke="rgb(100.000000%,0.000000%,0.000000%)" stroke-width="3.000000" />
<circle cx="644.980075" cy="320.000000" r="0.000000" fill="rgb(100.000000%,0.000000%,0.000000%)" stroke="rgb(100.000000%,0.000000%,0.000000%)" />
<line x1="644.977558" y1="320.000000" x2="644.980075" y2="320.000000" stroke="rgb(100.000000%,0.000000%,0.000000%)" stroke-width="3.000000" />

<line x1="644.977558" y1="290.000000" x2="644.977558" y2="320.000000" stroke="rgb(100.000000%,0.000000%,0.000000%)" stroke-width="3.000000" />
<circle cx="644.977558" cy="305.000000" r="0.000000" fill="rgb(100.000000%,0.000000%,0.000000%)" stroke="rgb(100.000000%,0.000000%,0.000000%)" />
<line x1="636.006804" y1="305.000000" x2="644.977558" y2="305.000000" stroke="rgb(99.694172%,0.000000%,0.000000%)" stroke-width="3.000000" />

<line x1="636.006804" y1="245.000000" x2="636.006804" y2="305.000000" stroke="rgb(99.694172%,0.000000%,0.000000%)" stroke-width="3.000000" />
<circle cx="636.006804" cy="275.000000" r="0.000000" fill="rgb(99.694172%,0.000000%,0.000000%)" stroke="rgb(99.694172%,0.000000%,0.000000%)" />
<line x1="617.020152" y1="275.000000" x2="636.006804" y2="275.000000" stroke="rgb(28.387247%,0.000000%,0.000000%)" stroke-width="3.000000" />

<line x1="696.696082" y1="350.000000" x2="712.809345" y2="350.000000" stroke="rgb(99.997641%,0.000000%,0.000000%)" stroke-width="3.000000" />
<text x="717.809345" y="354.000000" font-size="12" font-family="Arial;">BR_060</text>
<line x1="705.917446" y1="370.000000" x2="715.434908" y2="370.000000" stroke="rgb(100.000000%,0.000000%,0.000000%)" stroke-width="3.000000" />
<text x="720.434908" y="374.000000" font-size="12" font-family="Arial;">BR_099</text>
<line x1="705.917446" y1="390.000000" x2="709.065172" y2="390.000000" stroke="rgb(100.000000%,0.000000%,0.000000%)" stroke-width="3.000000" />
<text x="714.065172" y="394.000000" font-size="12" font-family="Arial;">BR_072</text>
<line x1="705.917446" y1="370.000000" x2="705.917446" y2="390.000000" stroke="rgb(100.000000%,0.000000%,0.000000%)" stroke-width="3.000000" />
<circle cx="705.917446" cy="380.000000" r="0.000000" fill="rgb(100.000000%,0.000000%,0.000000%)" stroke="rgb(100.000000%,0.000000%,0.000000%)" />
<line x1="699.840702" y1="380.000000" x2="705.917446" y2="380.000000" stroke="rgb(100.000000%,0.000000%,0.000000%)" stroke-width="3.000000" />

<line x1="706.406133" y1="410.000000" x2="706.408649" y2="410.000000" stroke="rgb(100.000000%,0.000000%,0.000000%)" stroke-width="3.000000" />
<text x="711.408649" y="414.000000" font-size="12" font-family="Arial;">BR_077</text>
<line x1="706.408649" y1="430.000000" x2="718.996051" y2="430.000000" stroke="rgb(100.000000%,0.000000%,0.000000%)" stroke-width="3.000000" />
<text x="723.996051" y="434.000000" font-size="12" font-family="Arial;">BR_068</text>
<line x1="706.408649" y1="450.000000" x2="706.411166" y2="450.000000" stroke="rgb(100.000000%,0.000000%,0.000000%)" stroke-width="3.000000" />
<text x="711.411166" y="454.000000" font-size="12" font-family="Arial;">BR_095</text>
<line x1="706.408649" y1="430.000000" x2="706.408649" y2="450.000000" stroke="rgb(100.000000%,0.000000%,0.000000%)" stroke-width="3.000000" />
<circle cx="706.408649" cy="440.000000" r="0.000000" fill="rgb(100.000000%,0.000000%,0.000000%)" stroke="rgb(100.000000%,0.000000%,0.000000%)" />
<line x1="706.406133" y1="440.000000" x2="706.408649" y2="440.000000" stroke="rgb(100.000000%,0.000000%,0.000000%)" stroke-width="3.000000" />

<line x1="706.406133" y1="410.000000" x2="706.406133" y2="440.000000" stroke="rgb(100.000000%,0.000000%,0.000000%)" stroke-width="3.000000" />
<circle cx="706.406133" cy="425.000000" r="0.000000" fill="rgb(100.000000%,0.000000%,0.000000%)" stroke="rgb(100.000000%,0.000000%,0.000000%)" />
<line x1="706.403616" y1="425.000000" x2="706.406133" y2="425.000000" stroke="rgb(100.000000%,0.000000%,0.000000%)" stroke-width="3.000000" />

<line x1="706.403616" y1="470.000000" x2="709.507349" y2="470.000000" stroke="rgb(100.000000%,0.000000%,0.000000%)" stroke-width="3.000000" />
<text x="714.507349" y="474.000000" font-size="12" font-family="Arial;">BR_069</text>
<line x1="706.403616" y1="425.000000" x2="706.403616" y2="470.000000" stroke="rgb(100.000000%,0.000000%,0.000000%)" stroke-width="3.000000" />
<circle cx="706.403616" cy="447.500000" r="0.000000" fill="rgb(100.000000%,0.000000%,0.000000%)" stroke="rgb(100.000000%,0.000000%,0.000000%)" />
<line x1="699.840702" y1="447.500000" x2="706.403616" y2="447.500000" stroke="rgb(100.000000%,0.000000%,0.000000%)" stroke-width="3.000000" />

<line x1="699.840702" y1="380.000000" x2="699.840702" y2="447.500000" stroke="rgb(100.000000%,0.000000%,0.000000%)" stroke-width="3.000000" />
<circle cx="699.840702" cy="413.750000" r="0.000000" fill="rgb(100.000000%,0.000000%,0.000000%)" stroke="rgb(100.000000%,0.000000%,0.000000%)" />
<line x1="696.696082" y1="413.750000" x2="699.840702" y2="413.750000" stroke="rgb(99.997641%,0.000000%,0.000000%)" stroke-width="3.000000" />

<line x1="696.696082" y1="350.000000" x2="696.696082" y2="413.750000" stroke="rgb(99.997641%,0.000000%,0.000000%)" stroke-width="3.000000" />
<circle cx="696.696082" cy="381.875000" r="0.000000" fill="rgb(99.997641%,0.000000%,0.000000%)" stroke="rgb(99.997641%,0.000000%,0.000000%)" />
<line x1="617.020152" y1="381.875000" x2="696.696082" y2="381.875000" stroke="rgb(28.387247%,0.000000%,0.000000%)" stroke-width="3.000000" />

<line x1="617.020152" y1="275.000000" x2="617.020152" y2="381.875000" stroke="rgb(28.387247%,0.000000%,0.000000%)" stroke-width="3.000000" />
<circle cx="617.020152" cy="328.437500" r="0.000000" fill="rgb(28.387247%,0.000000%,0.000000%)" stroke="rgb(28.387247%,0.000000%,0.000000%)" />
<text x="612.020152" y="323.437500" font-size="12" font-family="Arial;" text-anchor="end">0.72</text>
<line x1="425.560760" y1="328.437500" x2="617.020152" y2="328.437500" stroke="rgb(0.000000%,0.000000%,0.000000%)" stroke-width="3.000000" />

<line x1="425.560760" y1="167.500000" x2="425.560760" y2="328.437500" stroke="rgb(0.000000%,0.000000%,0.000000%)" stroke-width="3.000000" />
<circle cx="425.560760" cy="247.968750" r="0.000000" fill="rgb(0.000000%,0.000000%,0.000000%)" stroke="rgb(0.000000%,0.000000%,0.000000%)" />
<text x="420.560760" y="242.968750" font-size="12" font-family="Arial;" text-anchor="end">1.00</text>
<line x1="400.836264" y1="247.968750" x2="425.560760" y2="247.968750" stroke="rgb(0.000000%,0.000000%,0.000000%)" stroke-width="3.000000" />

<line x1="640.759663" y1="490.000000" x2="666.028153" y2="490.000000" stroke="rgb(99.807379%,0.000000%,0.000000%)" stroke-width="3.000000" />
<text x="671.028153" y="494.000000" font-size="12" font-family="Arial;">BR_048</text>
<line x1="674.797661" y1="510.000000" x2="699.509357" y2="510.000000" stroke="rgb(99.998537%,0.000000%,0.000000%)" stroke-width="3.000000" />
<text x="704.509357" y="514.000000" font-size="12" font-family="Arial;">BR_084</text>
<line x1="675.500993" y1="530.000000" x2="675.503509" y2="530.000000" stroke="rgb(100.000000%,0.000000%,0.000000%)" stroke-width="3.000000" />
<text x="680.503509" y="534.000000" font-size="12" font-family="Arial;">BR_080</text>
<line x1="675.500993" y1="550.000000" x2="678.589876" y2="550.000000" stroke="rgb(100.000000%,0.000000%,0.000000%)" stroke-width="3.000000" />
<text x="683.589876" y="554.000000" font-size="12" font-family="Arial;">BR_062</text>
<line x1="675.500993" y1="530.000000" x2="675.500993" y2="550.000000" stroke="rgb(100.000000%,0.000000%,0.000000%)" stroke-width="3.000000" />
<circle cx="675.500993" cy="540.000000" r="0.000000" fill="rgb(100.000000%,0.000000%,0.000000%)" stroke="rgb(100.000000%,0.000000%,0.000000%)" />
<line x1="674.797661" y1="540.000000" x2="675.500993" y2="540.000000" stroke="rgb(99.998537%,0.000000%,0.000000%)" stroke-width="3.000000" />

<line x1="674.797661" y1="510.000000" x2="674.797661" y2="540.000000" stroke="rgb(99.998537%,0.000000%,0.000000%)" stroke-width="3.000000" />
<circle cx="674.797661" cy="525.000000" r="0.000000" fill="rgb(99.998537%,0.000000%,0.000000%)" stroke="rgb(99.998537%,0.000000%,0.000000%)" />
<line x1="640.759663" y1="525.000000" x2="674.797661" y2="525.000000" stroke="rgb(99.807379%,0.000000%,0.000000%)" stroke-width="3.000000" />

<line x1="640.759663" y1="490.000000" x2="640.759663" y2="525.000000" stroke="rgb(99.807379%,0.000000%,0.000000%)" stroke-width="3.000000" />
<circle cx="640.759663" cy="507.500000" r="0.000000" fill="rgb(99.807379%,0.000000%,0.000000%)" stroke="rgb(99.807379%,0.000000%,0.000000%)" />
<line x1="494.193340" y1="507.500000" x2="640.759663" y2="507.500000" stroke="rgb(14.215475%,0.000000%,0.000000%)" stroke-width="3.000000" />

<line x1="494.193340" y1="570.000000" x2="1852.000000" y2="570.000000" stroke="rgb(14.215475%,0.000000%,0.000000%)" stroke-width="3.000000" />
<text x="1857.000000" y="574.000000" font-size="12" font-family="Arial;">BR_001</text>
<line x1="494.193340" y1="507.500000" x2="494.193340" y2="570.000000" stroke="rgb(14.215475%,0.000000%,0.000000%)" stroke-width="3.000000" />
<circle cx="494.193340" cy="538.750000" r="0.000000" fill="rgb(14.215475%,0.000000%,0.000000%)" stroke="rgb(14.215475%,0.000000%,0.000000%)" />
<text x="489.193340" y="533.750000" font-size="12" font-family="Arial;" text-anchor="end">0.86</text>
<line x1="465.167928" y1="538.750000" x2="494.193340" y2="538.750000" stroke="rgb(10.407976%,0.000000%,0.000000%)" stroke-width="3.000000" />

<line x1="610.049103" y1="590.000000" x2="610.051620" y2="590.000000" stroke="rgb(100.000000%,0.000000%,0.000000%)" stroke-width="3.000000" />
<text x="615.051620" y="594.000000" font-size="12" font-family="Arial;">BR_052</text>
<line x1="610.049103" y1="610.000000" x2="610.051620" y2="610.000000" stroke="rgb(100.000000%,0.000000%,0.000000%)" stroke-width="3.000000" />
<text x="615.051620" y="614.000000" font-size="12" font-family="Arial;">BR_007</text>
<line x1="610.049103" y1="590.000000" x2="610.049103" y2="610.000000" stroke="rgb(100.000000%,0.000000%,0.000000%)" stroke-width="3.000000" />
<circle cx="610.049103" cy="600.000000" r="0.000000" fill="rgb(100.000000%,0.000000%,0.000000%)" stroke="rgb(100.000000%,0.000000%,0.000000%)" />
<line x1="465.167928" y1="600.000000" x2="610.049103" y2="600.000000" stroke="rgb(10.407976%,0.000000%,0.000000%)" stroke-width="3.000000" />

<line x1="465.167928" y1="538.750000" x2="465.167928" y2="600.000000" stroke="rgb(10.407976%,0.000000%,0.000000%)" stroke-width="3.000000" />
<circle cx="465.167928" cy="569.375000" r="0.000000" fill="rgb(10.407976%,0.000000%,0.000000%)" stroke="rgb(10.407976%,0.000000%,0.000000%)" />
<text x="460.167928" y="564.375000" font-size="12" font-family="Arial;" text-anchor="end">0.90</text>
<line x1="400.836264" y1="569.375000" x2="465.167928" y2="569.375000" stroke="rgb(0.000000%,0.000000%,0.000000%)" stroke-width="3.000000" />

<line x1="400.836264" y1="247.968750" x2="400.836264" y2="569.375000" stroke="rgb(0.000000%,0.000000%,0.000000%)" stroke-width="3.000000" />
<circle cx="400.836264" cy="408.671875" r="0.000000" fill="rgb(0.000000%,0.000000%,0.000000%)" stroke="rgb(0.000000%,0.000000%,0.000000%)" />
<text x="395.836264" y="403.671875" font-size="12" font-family="Arial;" text-anchor="end">1.00</text>
<line x1="284.580178" y1="408.671875" x2="400.836264" y2="408.671875" stroke="rgb(0.000000%,0.000000%,0.000000%)" stroke-width="3.000000" />

<line x1="284.580178" y1="78.750000" x2="284.580178" y2="408.671875" stroke="rgb(0.000000%,0.000000%,0.000000%)" stroke-width="3.000000" />
<circle cx="284.580178" cy="243.710938" r="0.000000" fill="rgb(0.000000%,0.000000%,0.000000%)" stroke="rgb(0.000000%,0.000000%,0.000000%)" />
<text x="279.580178" y="238.710938" font-size="12" font-family="Arial;" text-anchor="end">1.00</text>
<line x1="175.627152" y1="243.710938" x2="284.580178" y2="243.710938" stroke="rgb(0.000000%,0.000000%,0.000000%)" stroke-width="3.000000" />

<line x1="533.395595" y1="630.000000" x2="536.545509" y2="630.000000" stroke="rgb(99.983891%,0.000000%,0.000000%)" stroke-width="3.000000" />
<text x="541.545509" y="634.000000" font-size="12" font-family="Arial;">BR_055</text>
<line x1="533.395595" y1="650.000000" x2="533.398111" y2="650.000000" stroke="rgb(99.983891%,0.000000%,0.000000%)" stroke-width="3.000000" />
<text x="538.398111" y="654.000000" font-size="12" font-family="Arial;">BR_057</text>
<line x1="533.395595" y1="630.000000" x2="533.395595" y2="650.000000" stroke="rgb(99.983891%,0.000000%,0.000000%)" stroke-width="3.000000" />
<circle cx="533.395595" cy="640.000000" r="0.000000" fill="rgb(99.983891%,0.000000%,0.000000%)" stroke="rgb(99.983891%,0.000000%,0.000000%)" />
<line x1="263.138140" y1="640.000000" x2="533.395595" y2="640.000000" stroke="rgb(0.172371%,0.000000%,0.000000%)" stroke-width="3.000000" />

<line x1="469.760299" y1="670.000000" x2="814.762872" y2="670.000000" stroke="rgb(1.674461%,0.000000%,0.000000%)" stroke-width="3.000000" />
<text x="819.762872" y="674.000000" font-size="12" font-family="Arial;">BR_026</text>
<line x1="722.136237" y1="690.000000" x2="722.138754" y2="690.000000" stroke="rgb(88.407195%,0.000000%,0.000000%)" stroke-width="3.000000" />
<text x="727.138754" y="694.000000" font-size="12" font-family="Arial;">BR_107</text>
<line x1="725.222076" y1="710.000000" x2="725.224593" y2="710.000000" stroke="rgb(99.886266%,0.000000%,0.000000%)" stroke-width="3.000000" />
<text x="730.224593" y="714.000000" font-size="12" font-family="Arial;">BR_006</text>
<line x1="725.224593" y1="730.000000" x2="728.326120" y2="730.000000" stroke="rgb(100.000000%,0.000000%,0.000000%)" stroke-width="3.000000" />
<text x="733.326120" y="734.000000" font-size="12" font-family="Arial;">BR_016</text>
<line x1="734.560905" y1="750.000000" x2="734.563422" y2="750.000000" stroke="rgb(100.000000%,0.000000%,0.000000%)" stroke-width="3.000000" />
<text x="739.563422" y="754.000000" font-size="12" font-family="Arial;">BR_088</text>
<line x1="734.560905" y1="770.000000" x2="734.563422" y2="770.000000" stroke="rgb(100.000000%,0.000000%,0.000000%)" stroke-width="3.000000" />
<text x="739.563422" y="774.000000" font-size="12" font-family="Arial;">BR_108</text>
<line x1="734.560905" y1="750.000000" x2="734.560905" y2="770.000000" stroke="rgb(100.000000%,0.000000%,0.000000%)" stroke-width="3.000000" />
<circle cx="734.560905" cy="760.000000" r="0.000000" fill="rgb(100.000000%,0.000000%,0.000000%)" stroke="rgb(100.000000%,0.000000%,0.000000%)" />
<line x1="725.224593" y1="760.000000" x2="734.560905" y2="760.000000" stroke="rgb(100.000000%,0.000000%,0.000000%)" stroke-width="3.000000" />

<line x1="725.224593" y1="730.000000" x2="725.224593" y2="760.000000" stroke="rgb(100.000000%,0.000000%,0.000000%)" stroke-width="3.000000" />
<circle cx="725.224593" cy="745.000000" r="0.000000" fill="rgb(100.000000%,0.000000%,0.000000%)" stroke="rgb(100.000000%,0.000000%,0.000000%)" />
<line x1="725.222076" y1="745.000000" x2="725.224593" y2="745.000000" stroke="rgb(99.886266%,0.000000%,0.000000%)" stroke-width="3.000000" />

<line x1="725.222076" y1="710.000000" x2="725.222076" y2="745.000000" stroke="rgb(99.886266%,0.000000%,0.000000%)" stroke-width="3.000000" />
<circle cx="725.222076" cy="727.500000" r="0.000000" fill="rgb(99.886266%,0.000000%,0.000000%)" stroke="rgb(99.886266%,0.000000%,0.000000%)" />
<line x1="722.136237" y1="727.500000" x2="725.222076" y2="727.500000" stroke="rgb(88.407195%,0.000000%,0.000000%)" stroke-width="3.000000" />

<line x1="722.136237" y1="690.000000" x2="722.136237" y2="727.500000" stroke="rgb(88.407195%,0.000000%,0.000000%)" stroke-width="3.000000" />
<circle cx="722.136237" cy="708.750000" r="0.000000" fill="rgb(88.407195%,0.000000%,0.000000%)" stroke="rgb(88.407195%,0.000000%,0.000000%)" />
<line x1="469.760299" y1="708.750000" x2="722.136237" y2="708.750000" stroke="rgb(1.674461%,0.000000%,0.000000%)" stroke-width="3.000000" />

<line x1="469.760299" y1="670.000000" x2="469.760299" y2="708.750000" stroke="rgb(1.674461%,0.000000%,0.000000%)" stroke-width="3.000000" />
<circle cx="469.760299" cy="689.375000" r="0.000000" fill="rgb(1.674461%,0.000000%,0.000000%)" stroke="rgb(1.674461%,0.000000%,0.000000%)" />
<text x="464.760299" y="684.375000" font-size="12" font-family="Arial;" text-anchor="end">0.98</text>
<line x1="263.138140" y1="689.375000" x2="469.760299" y2="689.375000" stroke="rgb(0.172371%,0.000000%,0.000000%)" stroke-width="3.000000" />

<line x1="263.138140" y1="640.000000" x2="263.138140" y2="689.375000" stroke="rgb(0.172371%,0.000000%,0.000000%)" stroke-width="3.000000" />
<circle cx="263.138140" cy="664.687500" r="0.000000" fill="rgb(0.172371%,0.000000%,0.000000%)" stroke="rgb(0.172371%,0.000000%,0.000000%)" />
<text x="258.138140" y="659.687500" font-size="12" font-family="Arial;" text-anchor="end">1.00</text>
<line x1="175.627152" y1="664.687500" x2="263.138140" y2="664.687500" stroke="rgb(0.000000%,0.000000%,0.000000%)" stroke-width="3.000000" />

<line x1="175.627152" y1="243.710938" x2="175.627152" y2="664.687500" stroke="rgb(0.000000%,0.000000%,0.000000%)" stroke-width="3.000000" />
<circle cx="175.627152" cy="454.199219" r="0.000000" fill="rgb(0.000000%,0.000000%,0.000000%)" stroke="rgb(0.000000%,0.000000%,0.000000%)" />
<text x="170.627152" y="449.199219" font-size="12" font-family="Arial;" text-anchor="end">1.00</text>
<line x1="20.000000" y1="454.199219" x2="175.627152" y2="454.199219" stroke="rgb(0.000000%,0.000000%,0.000000%)" stroke-width="3.000000" />

<line x1="20.000000" y1="30.000000" x2="20.000000" y2="454.199219" stroke="rgb(0.000000%,0.000000%,0.000000%)" stroke-width="3.000000" />
<circle cx="20.000000" cy="242.099609" r="0.000000" fill="rgb(0.000000%,0.000000%,0.000000%)" stroke="rgb(0.000000%,0.000000%,0.000000%)" />
<text x="15.000000" y="237.099609" font-size="12" font-family="Arial;" text-anchor="end">1.00</text>
</svg>
