<svg xmlns="http://www.w3.org/2000/svg" width="1920" height="850" style="border: 1px solid #cccccc;">
<line x1="20.000000" y1="10.000000" x2="203.200000" y2="10.000000" stroke="#31a354" stroke-width="3.000000" />
<text x="208.200000" y="16.000000" font-size="12" font-family="Arial;">0.1426557</text>
<line x1="121.523993" y1="30.000000" x2="521.299048" y2="30.000000" stroke="rgb(0.000000%,0.000000%,0.000000%)" stroke-width="3.000000" />
<text x="526.299048" y="34.000000" font-size="12" font-family="Arial;">BR_004</text>
<line x1="584.338331" y1="50.000000" x2="584.340709" y2="50.000000" stroke="rgb(87.882879%,0.000000%,0.000000%)" stroke-width="3.000000" />
<text x="589.340709" y="54.000000" font-size="12" font-family="Arial;">BR_075</text>
<line x1="652.116859" y1="70.000000" x2="654.712542" y2="70.000000" stroke="rgb(100.000000%,0.000000%,0.000000%)" stroke-width="3.000000" />
<text x="659.712542" y="74.000000" font-size="12" font-family="Arial;">BR_059</text>
<line x1="655.562084" y1="90.000000" x2="664.554099" y2="90.000000" stroke="rgb(100.000000%,0.000000%,0.000000%)" stroke-width="3.000000" />
<text x="669.554099" y="94.000000" font-size="12" font-family="Arial;">BR_054</text>
<line x1="655.562084" y1="110.000000" x2="655.564461" y2="110.000000" stroke="rgb(100.000000%,0.000000%,0.000000%)" stroke-width="3.000000" />
<text x="660.564461" y="114.000000" font-size="12" font-family="Arial;">BR_065</text>
<line x1="655.562084" y1="90.000000" x2="655.562084" y2="110.000000" stroke="rgb(100.000000%,0.000000%,0.000000%)" stroke-width="3.000000" />
<circle cx="655.562084" cy="100.000000" r="0.000000" fill="rgb(100.000000%,0.000000%,0.000000%)" stroke="rgb(100.000000%,0.000000%,0.000000%)" />
<line x1="652.116859" y1="100.000000" x2="655.562084" y2="100.000000" stroke="rgb(100.000000%,0.000000%,0.000000%)" stroke-width="3.000000" />

<line x1="652.116859" y1="70.000000" x2="652.116859" y2="100.000000" stroke="rgb(100.000000%,0.000000%,0.000000%)" stroke-width="3.000000" />
<circle cx="652.116859" cy="85.000000" r="0.000000" fill="rgb(100.000000%,0.000000%,0.000000%)" stroke="rgb(100.000000%,0.000000%,0.000000%)" />
<line x1="587.244456" y1="85.000000" x2="652.116859" y2="85.000000" stroke="rgb(98.176350%,0.000000%,0.000000%)" stroke-width="3.000000" />

<line x1="587.244456" y1="130.000000" x2="587.246833" y2="130.000000" stroke="rgb(98.176350%,0.000000%,0.000000%)" stroke-width="3.000000" />
<text x="592.246833" y="134.000000" font-size="12" font-family="Arial;">BR_074</text>
<line x1="587.244456" y1="85.000000" x2="587.244456" y2="130.000000" stroke="rgb(98.176350%,0.000000%,0.000000%)" stroke-width="3.000000" />
<circle cx="587.244456" cy="107.500000" r="0.000000" fill="rgb(98.176350%,0.000000%,0.000000%)" stroke="rgb(98.176350%,0.000000%,0.000000%)" />
<line x1="584.338331" y1="107.500000" x2="587.244456" y2="107.500000" stroke="rgb(87.882879%,0.000000%,0.000000%)" stroke-width="3.000000" />

<line x1="584.338331" y1="50.000000" x2="584.338331" y2="107.500000" stroke="rgb(87.882879%,0.000000%,0.000000%)" stroke-width="3.000000" />
<circle cx="584.338331" cy="78.750000" r="0.000000" fill="rgb(87.882879%,0.000000%,0.000000%)" stroke="rgb(87.882879%,0.000000%,0.000000%)" />
<line x1="371.441924" y1="78.750000" x2="584.338331" y2="78.750000" stroke="rgb(0.000000%,0.000000%,0.000000%)" stroke-width="3.000000" />

<line x1="717.997252" y1="150.000000" x2="717.999629" y2="150.000000" stroke="rgb(99.744502%,0.000000%,0.000000%)" stroke-width="3.000000" />
<text x="722.999629" y="154.000000" font-size="12" font-family="Arial;">BR_083</text>
<line x1="729.796001" y1="170.000000" x2="744.063720" y2="170.000000" stroke="rgb(99.999744%,0.000000%,0.000000%)" stroke-width="3.000000" />
<text x="749.063720" y="174.000000" font-size="12" font-family="Arial;">BR_091</text>
<line x1="729.798379" y1="190.000000" x2="729.800756" y2="190.000000" stroke="rgb(100.000000%,0.000000%,0.000000%)" stroke-width="3.000000" />
<text x="734.800756" y="194.000000" font-size="12" font-family="Arial;">BR_102</text>
<line x1="729.798379" y1="210.000000" x2="729.800756" y2="210.000000" stroke="rgb(100.000000%,0.000000%,0.000000%)" stroke-width="3.000000" />
<text x="734.800756" y="214.000000" font-size="12" font-family="Arial;">BR_015</text>
<line x1="729.798379" y1="190.000000" x2="729.798379" y2="210.000000" stroke="rgb(100.000000%,0.000000%,0.000000%)" stroke-width="3.000000" />
<circle cx="729.798379" cy="200.000000" r="0.000000" fill="rgb(100.000000%,0.000000%,0.000000%)" stroke="rgb(100.000000%,0.000000%,0.000000%)" />
<line x1="729.796001" y1="200.000000" x2="729.798379" y2="200.000000" stroke="rgb(99.999744%,0.000000%,0.000000%)" stroke-width="3.000000" />

<line x1="729.796001" y1="170.000000" x2="729.796001" y2="200.000000" stroke="rgb(99.999744%,0.000000%,0.000000%)" stroke-width="3.000000" />
<circle cx="729.796001" cy="185.000000" r="0.000000" fill="rgb(99.999744%,0.000000%,0.000000%)" stroke="rgb(99.999744%,0.000000%,0.000000%)" />
<line x1="717.997252" y1="185.000000" x2="729.796001" y2="185.000000" stroke="rgb(99.744502%,0.000000%,0.000000%)" stroke-width="3.000000" />

<line x1="717.997252" y1="150.000000" x2="717.997252" y2="185.000000" stroke="rgb(99.744502%,0.000000%,0.000000%)" stroke-width="3.000000" />
<circle cx="717.997252" cy="167.500000" r="0.000000" fill="rgb(99.744502%,0.000000%,0.000000%)" stroke="rgb(99.744502%,0.000000%,0.000000%)" />
<line x1="504.609782" y1="167.500000" x2="717.997252" y2="167.500000" stroke="rgb(0.000000%,0.000000%,0.000000%)" stroke-width="3.000000" />

<line x1="703.675677" y1="230.000000" x2="706.602312" y2="230.000000" stroke="rgb(100.000000%,0.000000%,0.000000%)" stroke-width="3.000000" />
<text x="711.602312" y="234.000000" font-size="12" font-family="Arial;">BR_030</text>
<line x1="703.678054" y1="250.000000" x2="706.607175" y2="250.000000" stroke="rgb(100.000000%,0.000000%,0.000000%)" stroke-width="3.000000" />
<text x="711.607175" y="254.000000" font-size="12" font-family="Arial;">BR_097</text>
<line x1="703.678054" y1="270.000000" x2="703.680432" y2="270.000000" stroke="rgb(100.000000%,0.000000%,0.000000%)" stroke-width="3.000000" />
<text x="708.680432" y="274.000000" font-size="12" font-family="Arial;">BR_039</text>
<line x1="703.678054" y1="250.000000" x2="703.678054" y2="270.000000" stroke="rgb(100.000000%,0.000000%,0.000000%)" stroke-width="3.000000" />
<circle cx="703.678054" cy="260.000000" r="0.000000" fill="rgb(100.000000%,0.000000%,0.000000%)" stroke="rgb(100.000000%,0.000000%,0.000000%)" />
<line x1="703.675677" y1="260.000000" x2="703.678054" y2="260.000000" stroke="rgb(100.000000%,0.000000%,0.000000%)" stroke-width="3.000000" />

<line x1="703.675677" y1="230.000000" x2="703.675677" y2="260.000000" stroke="rgb(100.000000%,0.000000%,0.000000%)" stroke-width="3.000000" />
<circle cx="703.675677" cy="245.000000" r="0.000000" fill="rgb(100.000000%,0.000000%,0.000000%)" stroke="rgb(100.000000%,0.000000%,0.000000%)" />
<line x1="703.393532" y1="245.000000" x2="703.675677" y2="245.000000" stroke="rgb(99.640598%,0.000000%,0.000000%)" stroke-width="3.000000" />

<line x1="711.867153" y1="290.000000" x2="711.869531" y2="290.000000" stroke="rgb(100.000000%,0.000000%,0.000000%)" stroke-width="3.000000" />
<text x="716.869531" y="294.000000" font-size="12" font-family="Arial;">BR_070</text>
<line x1="711.869531" y1="310.000000" x2="714.787010" y2="310.000000" stroke="rgb(100.000000%,0.000000%,0.000000%)" stroke-width="3.000000" />
<text x="719.787010" y="314.000000" font-size="12" font-family="Arial;">BR_066</text>
<line x1="711.869531" y1="330.000000" x2="711.871908" y2="330.000000" stroke="rgb(100.000000%,0.000000%,0.000000%)" stroke-width="3.000000" />
<text x="716.871908" y="334.000000" font-size="12" font-family="Arial;">BR_100</text>
<line x1="711.869531" y1="310.000000" x2="711.869531" y2="330.000000" stroke="rgb(100.000000%,0.000000%,0.000000%)" stroke-width="3.000000" />
<circle cx="711.869531" cy="320.000000" r="0.000000" fill="rgb(100.000000%,0.000000%,0.000000%)" stroke="rgb(100.000000%,0.000000%,0.000000%)" />
<line x1="711.867153" y1="320.000000" x2="711.869531" y2="320.000000" stroke="rgb(100.000000%,0.000000%,0.000000%)" stroke-width="3.000000" />

<line x1="711.867153" y1="290.000000" x2="711.867153" y2="320.000000" stroke="rgb(100.000000%,0.000000%,0.000000%)" stroke-width="3.000000" />
<circle cx="711.867153" cy="305.000000" r="0.000000" fill="rgb(100.000000%,0.000000%,0.000000%)" stroke="rgb(100.000000%,0.000000%,0.000000%)" />
<line x1="703.393532" y1="305.000000" x2="711.867153" y2="305.000000" stroke="rgb(99.640598%,0.000000%,0.000000%)" stroke-width="3.000000" />

<line x1="703.393532" y1="245.000000" x2="703.393532" y2="305.000000" stroke="rgb(99.640598%,0.000000%,0.000000%)" stroke-width="3.000000" />
<circle cx="703.393532" cy="275.000000" r="0.000000" fill="rgb(99.640598%,0.000000%,0.000000%)" stroke="rgb(99.640598%,0.000000%,0.000000%)" />
<line x1="685.459064" y1="275.000000" x2="703.393532" y2="275.000000" stroke="rgb(23.881181%,0.000000%,0.000000%)" stroke-width="3.000000" />

<line x1="760.719590" y1="350.000000" x2="775.939904" y2="350.000000" stroke="rgb(99.995240%,0.000000%,0.000000%)" stroke-width="3.000000" />
<text x="780.939904" y="354.000000" font-size="12" font-family="Arial;">BR_060</text>
<line x1="769.429934" y1="370.000000" x2="778.419966" y2="370.000000" stroke="rgb(100.000000%,0.000000%,0.000000%)" stroke-width="3.000000" />
<text x="783.419966" y="374.000000" font-size="12" font-family="Arial;">BR_099</text>
<line x1="769.429934" y1="390.000000" x2="772.403222" y2="390.000000" stroke="rgb(100.000000%,0.000000%,0.000000%)" stroke-width="3.000000" />
<text x="777.403222" y="394.000000" font-size="12" font-family="Arial;">BR_072</text>
<line x1="769.429934" y1="370.000000" x2="769.429934" y2="390.000000" stroke="rgb(100.000000%,0.000000%,0.000000%)" stroke-width="3.000000" />
<circle cx="769.429934" cy="380.000000" r="0.000000" fill="rgb(100.000000%,0.000000%,0.000000%)" stroke="rgb(100.000000%,0.000000%,0.000000%)" />
<line x1="763.689945" y1="380.000000" x2="769.429934" y2="380.000000" stroke="rgb(100.000000%,0.000000%,0.000000%)" stroke-width="3.000000" />

<line x1="769.891539" y1="410.000000" x2="769.893916" y2="410.000000" stroke="rgb(100.000000%,0.000000%,0.000000%)" stroke-width="3.000000" />
<text x="774.893916" y="414.000000" font-size="12" font-family="Arial;">BR_077</text>
<line x1="769.893916" y1="430.000000" x2="781.783762" y2="430.000000" stroke="rgb(100.000000%,0.000000%,0.000000%)" stroke-width="3.000000" />
<text x="786.783762" y="434.000000" font-size="12" font-family="Arial;">BR_068</text>
<line x1="769.893916" y1="450.000000" x2="769.896293" y2="450.000000" stroke="rgb(100.000000%,0.000000%,0.000000%)" stroke-width="3.000000" />
<text x="774.896293" y="454.000000" font-size="12" font-family="Arial;">BR_095</text>
<line x1="769.893916" y1="430.000000" x2="769.893916" y2="450.000000" stroke="rgb(100.000000%,0.000000%,0.000000%)" stroke-width="3.000000" />
<circle cx="769.893916" cy="440.000000" r="0.000000" fill="rgb(100.000000%,0.000000%,0.000000%)" stroke="rgb(100.000000%,0.000000%,0.000000%)" />
<line x1="769.891539" y1="440.000000" x2="769.893916" y2="440.000000" stroke="rgb(100.000000%,0.000000%,0.000000%)" stroke-width="3.000000" />

<line x1="769.891539" y1="410.000000" x2="769.891539" y2="440.000000" stroke="rgb(100.000000%,0.000000%,0.000000%)" stroke-width="3.000000" />
<circle cx="769.891539" cy="425.000000" r="0.000000" fill="rgb(100.000000%,0.000000%,0.000000%)" stroke="rgb(100.000000%,0.000000%,0.000000%)" />
<line x1="769.889161" y1="425.000000" x2="769.891539" y2="425.000000" stroke="rgb(100.000000%,0.000000%,0.000000%)" stroke-width="3.000000" />

<line x1="769.889161" y1="470.000000" x2="772.820895" y2="470.000000" stroke="rgb(100.000000%,0.000000%,0.000000%)" stroke-width="3.000000" />
<text x="777.820895" y="474.000000" font-size="12" font-family="Arial;">BR_069</text>
<line x1="769.889161" y1="425.000000" x2="769.889161" y2="470.000000" stroke="rgb(100.000000%,0.000000%,0.000000%)" stroke-width="3.000000" />
<circle cx="769.889161" cy="447.500000" r="0.000000" fill="rgb(100.000000%,0.000000%,0.000000%)" stroke="rgb(100.000000%,0.000000%,0.000000%)" />
<line x1="763.689945" y1="447.500000" x2="769.889161" y2="447.500000" stroke="rgb(100.000000%,0.000000%,0.000000%)" stroke-width="3.000000" />

<line x1="763.689945" y1="380.000000" x2="763.689945" y2="447.500000" stroke="rgb(100.000000%,0.000000%,0.000000%)" stroke-width="3.000000" />
<circle cx="763.689945" cy="413.750000" r="0.000000" fill="rgb(100.000000%,0.000000%,0.000000%)" stroke="rgb(100.000000%,0.000000%,0.000000%)" />
<line x1="760.719590" y1="413.750000" x2="763.689945" y2="413.750000" stroke="rgb(99.995240%,0.000000%,0.000000%)" stroke-width="3.000000" />

<line x1="760.719590" y1="350.000000" x2="760.719590" y2="413.750000" stroke="rgb(99.995240%,0.000000%,0.000000%)" stroke-width="3.000000" />
<circle cx="760.719590" cy="381.875000" r="0.000000" fill="rgb(99.995240%,0.000000%,0.000000%)" stroke="rgb(99.995240%,0.000000%,0.000000%)" />
<line x1="685.459064" y1="381.875000" x2="760.719590" y2="381.875000" stroke="rgb(23.881181%,0.000000%,0.000000%)" stroke-width="3.000000" />

<line x1="685.459064" y1="275.000000" x2="685.459064" y2="381.875000" stroke="rgb(23.881181%,0.000000%,0.000000%)" stroke-width="3.000000" />
<circle cx="685.459064" cy="328.437500" r="0.000000" fill="rgb(23.881181%,0.000000%,0.000000%)" stroke="rgb(23.881181%,0.000000%,0.000000%)" />
<text x="680.459064" y="323.437500" font-size="12" font-family="Arial;" text-anchor="end">0.76</text>
<line x1="504.609782" y1="328.437500" x2="685.459064" y2="328.437500" stroke="rgb(0.000000%,0.000000%,0.000000%)" stroke-width="3.000000" />

<line x1="504.609782" y1="167.500000" x2="504.609782" y2="328.437500" stroke="rgb(0.000000%,0.000000%,0.000000%)" stroke-width="3.000000" />
<circle cx="504.609782" cy="247.968750" r="0.000000" fill="rgb(0.000000%,0.000000%,0.000000%)" stroke="rgb(0.000000%,0.000000%,0.000000%)" />
<text x="499.609782" y="242.968750" font-size="12" font-family="Arial;" text-anchor="end">1.00</text>
<line x1="481.255444" y1="247.968750" x2="504.609782" y2="247.968750" stroke="rgb(0.000000%,0.000000%,0.000000%)" stroke-width="3.000000" />

<line x1="707.883001" y1="490.000000" x2="731.751187" y2="490.000000" stroke="rgb(99.818726%,0.000000%,0.000000%)" stroke-width="3.000000" />
<text x="736.751187" y="494.000000" font-size="12" font-family="Arial;">BR_048</text>
<line x1="740.034714" y1="510.000000" x2="763.376962" y2="510.000000" stroke="rgb(99.999481%,0.000000%,0.000000%)" stroke-width="3.000000" />
<text x="768.376962" y="514.000000" font-size="12" font-family="Arial;">BR_084</text>
<line x1="740.699070" y1="530.000000" x2="740.701447" y2="530.000000" stroke="rgb(100.000000%,0.000000%,0.000000%)" stroke-width="3.000000" />
<text x="745.701447" y="534.000000" font-size="12" font-family="Arial;">BR_080</text>
<line x1="740.699070" y1="550.000000" x2="743.616777" y2="550.000000" stroke="rgb(100.000000%,0.000000%,0.000000%)" stroke-width="3.000000" />
<text x="748.616777" y="554.000000" font-size="12" font-family="Arial;">BR_062</text>
<line x1="740.699070" y1="530.000000" x2="740.699070" y2="550.000000" stroke="rgb(100.000000%,0.000000%,0.000000%)" stroke-width="3.000000" />
<circle cx="740.699070" cy="540.000000" r="0.000000" fill="rgb(100.000000%,0.000000%,0.000000%)" stroke="rgb(100.000000%,0.000000%,0.000000%)" />
<line x1="740.034714" y1="540.000000" x2="740.699070" y2="540.000000" stroke="rgb(99.999481%,0.000000%,0.000000%)" stroke-width="3.000000" />

<line x1="740.034714" y1="510.000000" x2="740.034714" y2="540.000000" stroke="rgb(99.999481%,0.000000%,0.000000%)" stroke-width="3.000000" />
<circle cx="740.034714" cy="525.000000" r="0.000000" fill="rgb(99.999481%,0.000000%,0.000000%)" stroke="rgb(99.999481%,0.000000%,0.000000%)" />
<line x1="707.883001" y1="525.000000" x2="740.034714" y2="525.000000" stroke="rgb(99.818726%,0.000000%,0.000000%)" stroke-width="3.000000" />

<line x1="707.883001" y1="490.000000" x2="707.883001" y2="525.000000" stroke="rgb(99.818726%,0.000000%,0.000000%)" stroke-width="3.000000" />
<circle cx="707.883001" cy="507.500000" r="0.000000" fill="rgb(99.818726%,0.000000%,0.000000%)" stroke="rgb(99.818726%,0.000000%,0.000000%)" />
<line x1="569.438948" y1="507.500000" x2="707.883001" y2="507.500000" stroke="rgb(26.340473%,0.000000%,0.000000%)" stroke-width="3.000000" />

<line x1="569.438948" y1="570.000000" x2="1852.000000" y2="570.000000" stroke="rgb(26.340473%,0.000000%,0.000000%)" stroke-width="3.000000" />
<text x="1857.000000" y="574.000000" font-size="12" font-family="Arial;">BR_001</text>
<line x1="569.438948" y1="507.500000" x2="569.438948" y2="570.000000" stroke="rgb(26.340473%,0.000000%,0.000000%)" stroke-width="3.000000" />
<circle cx="569.438948" cy="538.750000" r="0.000000" fill="rgb(26.340473%,0.000000%,0.000000%)" stroke="rgb(26.340473%,0.000000%,0.000000%)" />
<text x="564.438948" y="533.750000" font-size="12" font-family="Arial;" text-anchor="end">0.74</text>
<line x1="542.022038" y1="538.750000" x2="569.438948" y2="538.750000" stroke="rgb(19.264843%,0.000000%,0.000000%)" stroke-width="3.000000" />

<line x1="678.874330" y1="590.000000" x2="678.876707" y2="590.000000" stroke="rgb(100.000000%,0.000000%,0.000000%)" stroke-width="3.000000" />
<text x="683.876707" y="594.000000" font-size="12" font-family="Arial;">BR_052</text>
<line x1="678.874330" y1="610.000000" x2="678.876707" y2="610.000000" stroke="rgb(100.000000%,0.000000%,0.000000%)" stroke-width="3.000000" />
<text x="683.876707" y="614.000000" font-size="12" font-family="Arial;">BR_007</text>
<line x1="678.874330" y1="590.000000" x2="678.874330" y2="610.000000" stroke="rgb(100.000000%,0.000000%,0.000000%)" stroke-width="3.000000" />
<circle cx="678.874330" cy="600.000000" r="0.000000" fill="rgb(100.000000%,0.000000%,0.000000%)" stroke="rgb(100.000000%,0.000000%,0.000000%)" />
<line x1="542.022038" y1="600.000000" x2="678.874330" y2="600.000000" stroke="rgb(19.264843%,0.000000%,0.000000%)" stroke-width="3.000000" />

<line x1="542.022038" y1="538.750000" x2="542.022038" y2="600.000000" stroke="rgb(19.264843%,0.000000%,0.000000%)" stroke-width="3.000000" />
<circle cx="542.022038" cy="569.375000" r="0.000000" fill="rgb(19.264843%,0.000000%,0.000000%)" stroke="rgb(19.264843%,0.000000%,0.000000%)" />
<text x="537.022038" y="564.375000" font-size="12" font-family="Arial;" text-anchor="end">0.81</text>
<line x1="481.255444" y1="569.375000" x2="542.022038" y2="569.375000" stroke="rgb(0.000000%,0.000000%,0.000000%)" stroke-width="3.000000" />

<line x1="481.255444" y1="247.968750" x2="481.255444" y2="569.375000" stroke="rgb(0.000000%,0.000000%,0.000000%)" stroke-width="3.000000" />
<circle cx="481.255444" cy="408.671875" r="0.000000" fill="rgb(0.000000%,0.000000%,0.000000%)" stroke="rgb(0.000000%,0.000000%,0.000000%)" />
<text x="476.255444" y="403.671875" font-size="12" font-family="Arial;" text-anchor="end">1.00</text>
<line x1="371.441924" y1="408.671875" x2="481.255444" y2="408.671875" stroke="rgb(0.000000%,0.000000%,0.000000%)" stroke-width="3.000000" />

<line x1="371.441924" y1="78.750000" x2="371.441924" y2="408.671875" stroke="rgb(0.000000%,0.000000%,0.000000%)" stroke-width="3.000000" />
<circle cx="371.441924" cy="243.710938" r="0.000000" fill="rgb(0.000000%,0.000000%,0.000000%)" stroke="rgb(0.000000%,0.000000%,0.000000%)" />
<text x="366.441924" y="238.710938" font-size="12" font-family="Arial;" text-anchor="end">1.00</text>
<line x1="268.526751" y1="243.710938" x2="371.441924" y2="243.710938" stroke="rgb(0.000000%,0.000000%,0.000000%)" stroke-width="3.000000" />

<line x1="606.468730" y1="630.000000" x2="609.444086" y2="630.000000" stroke="rgb(99.985664%,0.000000%,0.000000%)" stroke-width="3.000000" />
<text x="614.444086" y="634.000000" font-size="12" font-family="Arial;">BR_055</text>
<line x1="606.468730" y1="650.000000" x2="606.471108" y2="650.000000" stroke="rgb(99.985664%,0.000000%,0.000000%)" stroke-width="3.000000" />
<text x="611.471108" y="654.000000" font-size="12" font-family="Arial;">BR_057</text>
<line x1="606.468730" y1="630.000000" x2="606.468730" y2="650.000000" stroke="rgb(99.985664%,0.000000%,0.000000%)" stroke-width="3.000000" />
<circle cx="606.468730" cy="640.000000" r="0.000000" fill="rgb(99.985664%,0.000000%,0.000000%)" stroke="rgb(99.985664%,0.000000%,0.000000%)" />
<line x1="351.188141" y1="640.000000" x2="606.468730" y2="640.000000" stroke="rgb(0.203473%,0.000000%,0.000000%)" stroke-width="3.000000" />

<line x1="546.359913" y1="670.000000" x2="872.243469" y2="670.000000" stroke="rgb(1.851902%,0.000000%,0.000000%)" stroke-width="3.000000" />
<text x="877.243469" y="674.000000" font-size="12" font-family="Arial;">BR_026</text>
<line x1="784.749928" y1="690.000000" x2="784.752305" y2="690.000000" stroke="rgb(88.141347%,0.000000%,0.000000%)" stroke-width="3.000000" />
<text x="789.752305" y="694.000000" font-size="12" font-family="Arial;">BR_107</text>
<line x1="787.664758" y1="710.000000" x2="787.667136" y2="710.000000" stroke="rgb(99.892056%,0.000000%,0.000000%)" stroke-width="3.000000" />
<text x="792.667136" y="714.000000" font-size="12" font-family="Arial;">BR_006</text>
<line x1="787.667136" y1="730.000000" x2="790.596786" y2="730.000000" stroke="rgb(100.000000%,0.000000%,0.000000%)" stroke-width="3.000000" />
<text x="795.596786" y="734.000000" font-size="12" font-family="Arial;">BR_016</text>
<line x1="796.486058" y1="750.000000" x2="796.488435" y2="750.000000" stroke="rgb(100.000000%,0.000000%,0.000000%)" stroke-width="3.000000" />
<text x="801.488435" y="754.000000" font-size="12" font-family="Arial;">BR_088</text>
<line x1="796.486058" y1="770.000000" x2="796.488435" y2="770.000000" stroke="rgb(100.000000%,0.000000%,0.000000%)" stroke-width="3.000000" />
<text x="801.488435" y="774.000000" font-size="12" font-family="Arial;">BR_108</text>
<line x1="796.486058" y1="750.000000" x2="796.486058" y2="770.000000" stroke="rgb(100.000000%,0.000000%,0.000000%)" stroke-width="3.000000" />
<circle cx="796.486058" cy="760.000000" r="0.000000" fill="rgb(100.000000%,0.000000%,0.000000%)" stroke="rgb(100.000000%,0.000000%,0.000000%)" />
<line x1="787.667136" y1="760.000000" x2="796.486058" y2="760.000000" stroke="rgb(100.000000%,0.000000%,0.000000%)" stroke-width="3.000000" />

<line x1="787.667136" y1="730.000000" x2="787.667136" y2="760.000000" stroke="rgb(100.000000%,0.000000%,0.000000%)" stroke-width="3.000000" />
<circle cx="787.667136" cy="745.000000" r="0.000000" fill="rgb(100.000000%,0.000000%,0.000000%)" stroke="rgb(100.000000%,0.000000%,0.000000%)" />
<line x1="787.664758" y1="745.000000" x2="787.667136" y2="745.000000" stroke="rgb(99.892056%,0.000000%,0.000000%)" stroke-width="3.000000" />

<line x1="787.664758" y1="710.000000" x2="787.664758" y2="745.000000" stroke="rgb(99.892056%,0.000000%,0.000000%)" stroke-width="3.000000" />
<circle cx="787.664758" cy="727.500000" r="0.000000" fill="rgb(99.892056%,0.000000%,0.000000%)" stroke="rgb(99.892056%,0.000000%,0.000000%)" />
<line x1="784.749928" y1="727.500000" x2="787.664758" y2="727.500000" stroke="rgb(88.141347%,0.000000%,0.000000%)" stroke-width="3.000000" />

<line x1="784.749928" y1="690.000000" x2="784.749928" y2="727.500000" stroke="rgb(88.141347%,0.000000%,0.000000%)" stroke-width="3.000000" />
<circle cx="784.749928" cy="708.750000" r="0.000000" fill="rgb(88.141347%,0.000000%,0.000000%)" stroke="rgb(88.141347%,0.000000%,0.000000%)" />
<line x1="546.359913" y1="708.750000" x2="784.749928" y2="708.750000" stroke="rgb(1.851902%,0.000000%,0.000000%)" stroke-width="3.000000" />

<line x1="546.359913" y1="670.000000" x2="546.359913" y2="708.750000" stroke="rgb(1.851902%,0.000000%,0.000000%)" stroke-width="3.000000" />
<circle cx="546.359913" cy="689.375000" r="0.000000" fill="rgb(1.851902%,0.000000%,0.000000%)" stroke="rgb(1.851902%,0.000000%,0.000000%)" />
<text x="541.359913" y="684.375000" font-size="12" font-family="Arial;" text-anchor="end">0.98</text>
<line x1="351.188141" y1="689.375000" x2="546.359913" y2="689.375000" stroke="rgb(0.203473%,0.000000%,0.000000%)" stroke-width="3.000000" />

<line x1="351.188141" y1="640.000000" x2="351.188141" y2="689.375000" stroke="rgb(0.203473%,0.000000%,0.000000%)" stroke-width="3.000000" />
<circle cx="351.188141" cy="664.687500" r="0.000000" fill="rgb(0.203473%,0.000000%,0.000000%)" stroke="rgb(0.203473%,0.000000%,0.000000%)" />
<text x="346.188141" y="659.687500" font-size="12" font-family="Arial;" text-anchor="end">1.00</text>
<line x1="268.526751" y1="664.687500" x2="351.188141" y2="664.687500" stroke="rgb(0.000000%,0.000000%,0.000000%)" stroke-width="3.000000" />

<line x1="268.526751" y1="243.710938" x2="268.526751" y2="664.687500" stroke="rgb(0.000000%,0.000000%,0.000000%)" stroke-width="3.000000" />
<circle cx="268.526751" cy="454.199219" r="0.000000" fill="rgb(0.000000%,0.000000%,0.000000%)" stroke="rgb(0.000000%,0.000000%,0.000000%)" />
<text x="263.526751" y="449.199219" font-size="12" font-family="Arial;" text-anchor="end">1.00</text>
<line x1="121.523993" y1="454.199219" x2="268.526751" y2="454.199219" stroke="rgb(0.000000%,0.000000%,0.000000%)" stroke-width="3.000000" />

<line x1="121.523993" y1="30.000000" x2="121.523993" y2="454.199219" stroke="rgb(0.000000%,0.000000%,0.000000%)" stroke-width="3.000000" />
<circle cx="121.523993" cy="242.099609" r="0.000000" fill="rgb(0.000000%,0.000000%,0.000000%)" stroke="rgb(0.000000%,0.000000%,0.000000%)" />
<text x="116.523993" y="237.099609" font-size="12" font-family="Arial;" text-anchor="end">1.00</text>
<line x1="20.000000" y1="242.099609" x2="121.523993" y2="242.099609" stroke="rgb(0.000000%,0.000000%,0.000000%)" stroke-width="3.000000" />

<line x1="121.523993" y1="790.000000" x2="764.120444" y2="790.000000" stroke="rgb(99.694740%,0.000000%,0.000000%)" stroke-width="3.000000" />
<text x="769.120444" y="794.000000" font-size="12" font-family="Arial;">BR_076</text>
<line x1="121.523993" y1="810.000000" x2="743.936050" y2="810.000000" stroke="rgb(99.694740%,0.000000%,0.000000%)" stroke-width="3.000000" />
<text x="748.936050" y="814.000000" font-size="12" font-family="Arial;">BR_018</text>
<line x1="121.523993" y1="790.000000" x2="121.523993" y2="810.000000" stroke="rgb(99.694740%,0.000000%,0.000000%)" stroke-width="3.000000" />
<circle cx="121.523993" cy="800.000000" r="0.000000" fill="rgb(99.694740%,0.000000%,0.000000%)" stroke="rgb(99.694740%,0.000000%,0.000000%)" />
<line x1="20.000000" y1="800.000000" x2="121.523993" y2="800.000000" stroke="rgb(0.000000%,0.000000%,0.000000%)" stroke-width="3.000000" />

<line x1="20.000000" y1="242.099609" x2="20.000000" y2="800.000000" stroke="rgb(0.000000%,0.000000%,0.000000%)" stroke-width="3.000000" />
<circle cx="20.000000" cy="521.049805" r="0.000000" fill="rgb(0.000000%,0.000000%,0.000000%)" stroke="rgb(0.000000%,0.000000%,0.000000%)" />
<text x="15.000000" y="516.049805" font-size="12" font-family="Arial;" text-anchor="end">1.00</text>
</svg>
