<svg xmlns="http://www.w3.org/2000/svg" width="1920" height="1110" style="border: 1px solid #cccccc;">
<line x1="20.000000" y1="10.000000" x2="203.200000" y2="10.000000" stroke="#31a354" stroke-width="3.000000" />
<text x="208.200000" y="16.000000" font-size="12" font-family="Arial;">0.1291310</text>
<line x1="514.396796" y1="30.000000" x2="514.398215" y2="30.000000" stroke="rgb(46.352057%,0.000000%,0.000000%)" stroke-width="3.000000" />
<text x="519.398215" y="34.000000" font-size="12" font-family="Arial;">BR_075</text>
<line x1="517.578706" y1="50.000000" x2="517.580124" y2="50.000000" stroke="rgb(86.427731%,0.000000%,0.000000%)" stroke-width="3.000000" />
<text x="522.580124" y="54.000000" font-size="12" font-family="Arial;">BR_074</text>
<line x1="588.235020" y1="70.000000" x2="591.158263" y2="70.000000" stroke="rgb(99.998958%,0.000000%,0.000000%)" stroke-width="3.000000" />
<text x="596.158263" y="74.000000" font-size="12" font-family="Arial;">BR_059</text>
<line x1="591.912312" y1="90.000000" x2="601.724444" y2="90.000000" stroke="rgb(100.000000%,0.000000%,0.000000%)" stroke-width="3.000000" />
<text x="606.724444" y="94.000000" font-size="12" font-family="Arial;">BR_054</text>
<line x1="591.912312" y1="110.000000" x2="591.913730" y2="110.000000" stroke="rgb(100.000000%,0.000000%,0.000000%)" stroke-width="3.000000" />
<text x="596.913730" y="114.000000" font-size="12" font-family="Arial;">BR_065</text>
<line x1="591.912312" y1="90.000000" x2="591.912312" y2="110.000000" stroke="rgb(100.000000%,0.000000%,0.000000%)" stroke-width="3.000000" />
<circle cx="591.912312" cy="100.000000" r="0.000000" fill="rgb(100.000000%,0.000000%,0.000000%)" stroke="rgb(100.000000%,0.000000%,0.000000%)" />
<line x1="588.235020" y1="100.000000" x2="591.912312" y2="100.000000" stroke="rgb(99.998958%,0.000000%,0.000000%)" stroke-width="3.000000" />

<line x1="588.235020" y1="70.000000" x2="588.235020" y2="100.000000" stroke="rgb(99.998958%,0.000000%,0.000000%)" stroke-width="3.000000" />
<circle cx="588.235020" cy="85.000000" r="0.000000" fill="rgb(99.998958%,0.000000%,0.000000%)" stroke="rgb(99.998958%,0.000000%,0.000000%)" />
<line x1="517.578706" y1="85.000000" x2="588.235020" y2="85.000000" stroke="rgb(86.427731%,0.000000%,0.000000%)" stroke-width="3.000000" />

<line x1="517.578706" y1="50.000000" x2="517.578706" y2="85.000000" stroke="rgb(86.427731%,0.000000%,0.000000%)" stroke-width="3.000000" />
<circle cx="517.578706" cy="67.500000" r="0.000000" fill="rgb(86.427731%,0.000000%,0.000000%)" stroke="rgb(86.427731%,0.000000%,0.000000%)" />
<line x1="514.396796" y1="67.500000" x2="517.578706" y2="67.500000" stroke="rgb(46.352057%,0.000000%,0.000000%)" stroke-width="3.000000" />

<line x1="514.396796" y1="30.000000" x2="514.396796" y2="67.500000" stroke="rgb(46.352057%,0.000000%,0.000000%)" stroke-width="3.000000" />
<circle cx="514.396796" cy="48.750000" r="0.000000" fill="rgb(46.352057%,0.000000%,0.000000%)" stroke="rgb(46.352057%,0.000000%,0.000000%)" />
<text x="509.396796" y="43.750000" font-size="12" font-family="Arial;" text-anchor="end">0.54</text>
<line x1="283.743623" y1="48.750000" x2="514.396796" y2="48.750000" stroke="rgb(0.000000%,0.000000%,0.000000%)" stroke-width="3.000000" />

<line x1="656.154894" y1="130.000000" x2="656.156313" y2="130.000000" stroke="rgb(99.315597%,0.000000%,0.000000%)" stroke-width="3.000000" />
<text x="661.156313" y="134.000000" font-size="12" font-family="Arial;">BR_083</text>
<line x1="669.099632" y1="150.000000" x2="669.101051" y2="150.000000" stroke="rgb(100.000000%,0.000000%,0.000000%)" stroke-width="3.000000" />
<text x="674.101051" y="154.000000" font-size="12" font-family="Arial;">BR_024</text>
<line x1="669.102469" y1="170.000000" x2="669.103888" y2="170.000000" stroke="rgb(100.000000%,0.000000%,0.000000%)" stroke-width="3.000000" />
<text x="674.103888" y="174.000000" font-size="12" font-family="Arial;">BR_102</text>
<line x1="669.102469" y1="190.000000" x2="669.103888" y2="190.000000" stroke="rgb(100.000000%,0.000000%,0.000000%)" stroke-width="3.000000" />
<text x="674.103888" y="194.000000" font-size="12" font-family="Arial;">BR_105</text>
<line x1="669.102469" y1="170.000000" x2="669.102469" y2="190.000000" stroke="rgb(100.000000%,0.000000%,0.000000%)" stroke-width="3.000000" />
<circle cx="669.102469" cy="180.000000" r="0.000000" fill="rgb(100.000000%,0.000000%,0.000000%)" stroke="rgb(100.000000%,0.000000%,0.000000%)" />
<line x1="669.101051" y1="180.000000" x2="669.102469" y2="180.000000" stroke="rgb(100.000000%,0.000000%,0.000000%)" stroke-width="3.000000" />

<line x1="669.102469" y1="210.000000" x2="669.103888" y2="210.000000" stroke="rgb(100.000000%,0.000000%,0.000000%)" stroke-width="3.000000" />
<text x="674.103888" y="214.000000" font-size="12" font-family="Arial;">BR_104</text>
<line x1="669.102469" y1="230.000000" x2="669.103888" y2="230.000000" stroke="rgb(100.000000%,0.000000%,0.000000%)" stroke-width="3.000000" />
<text x="674.103888" y="234.000000" font-size="12" font-family="Arial;">BR_103</text>
<line x1="669.102469" y1="210.000000" x2="669.102469" y2="230.000000" stroke="rgb(100.000000%,0.000000%,0.000000%)" stroke-width="3.000000" />
<circle cx="669.102469" cy="220.000000" r="0.000000" fill="rgb(100.000000%,0.000000%,0.000000%)" stroke="rgb(100.000000%,0.000000%,0.000000%)" />
<line x1="669.101051" y1="220.000000" x2="669.102469" y2="220.000000" stroke="rgb(100.000000%,0.000000%,0.000000%)" stroke-width="3.000000" />

<line x1="669.101051" y1="180.000000" x2="669.101051" y2="220.000000" stroke="rgb(100.000000%,0.000000%,0.000000%)" stroke-width="3.000000" />
<circle cx="669.101051" cy="200.000000" r="0.000000" fill="rgb(100.000000%,0.000000%,0.000000%)" stroke="rgb(100.000000%,0.000000%,0.000000%)" />
<line x1="669.099632" y1="200.000000" x2="669.101051" y2="200.000000" stroke="rgb(100.000000%,0.000000%,0.000000%)" stroke-width="3.000000" />

<line x1="669.099632" y1="150.000000" x2="669.099632" y2="200.000000" stroke="rgb(100.000000%,0.000000%,0.000000%)" stroke-width="3.000000" />
<circle cx="669.099632" cy="175.000000" r="0.000000" fill="rgb(100.000000%,0.000000%,0.000000%)" stroke="rgb(100.000000%,0.000000%,0.000000%)" />
<line x1="669.098213" y1="175.000000" x2="669.099632" y2="175.000000" stroke="rgb(100.000000%,0.000000%,0.000000%)" stroke-width="3.000000" />

<line x1="669.098213" y1="250.000000" x2="669.099632" y2="250.000000" stroke="rgb(100.000000%,0.000000%,0.000000%)" stroke-width="3.000000" />
<text x="674.099632" y="254.000000" font-size="12" font-family="Arial;">BR_015</text>
<line x1="669.098213" y1="175.000000" x2="669.098213" y2="250.000000" stroke="rgb(100.000000%,0.000000%,0.000000%)" stroke-width="3.000000" />
<circle cx="669.098213" cy="212.500000" r="0.000000" fill="rgb(100.000000%,0.000000%,0.000000%)" stroke="rgb(100.000000%,0.000000%,0.000000%)" />
<line x1="669.096795" y1="212.500000" x2="669.098213" y2="212.500000" stroke="rgb(100.000000%,0.000000%,0.000000%)" stroke-width="3.000000" />

<line x1="669.096795" y1="270.000000" x2="669.098213" y2="270.000000" stroke="rgb(100.000000%,0.000000%,0.000000%)" stroke-width="3.000000" />
<text x="674.098213" y="274.000000" font-size="12" font-family="Arial;">BR_022</text>
<line x1="669.096795" y1="212.500000" x2="669.096795" y2="270.000000" stroke="rgb(100.000000%,0.000000%,0.000000%)" stroke-width="3.000000" />
<circle cx="669.096795" cy="241.250000" r="0.000000" fill="rgb(100.000000%,0.000000%,0.000000%)" stroke="rgb(100.000000%,0.000000%,0.000000%)" />
<line x1="669.095376" y1="241.250000" x2="669.096795" y2="241.250000" stroke="rgb(99.999305%,0.000000%,0.000000%)" stroke-width="3.000000" />

<line x1="669.095376" y1="290.000000" x2="684.657848" y2="290.000000" stroke="rgb(99.999305%,0.000000%,0.000000%)" stroke-width="3.000000" />
<text x="689.657848" y="294.000000" font-size="12" font-family="Arial;">BR_091</text>
<line x1="669.095376" y1="241.250000" x2="669.095376" y2="290.000000" stroke="rgb(99.999305%,0.000000%,0.000000%)" stroke-width="3.000000" />
<circle cx="669.095376" cy="265.625000" r="0.000000" fill="rgb(99.999305%,0.000000%,0.000000%)" stroke="rgb(99.999305%,0.000000%,0.000000%)" />
<line x1="656.154894" y1="265.625000" x2="669.095376" y2="265.625000" stroke="rgb(99.315597%,0.000000%,0.000000%)" stroke-width="3.000000" />

<line x1="656.154894" y1="130.000000" x2="656.154894" y2="265.625000" stroke="rgb(99.315597%,0.000000%,0.000000%)" stroke-width="3.000000" />
<circle cx="656.154894" cy="197.812500" r="0.000000" fill="rgb(99.315597%,0.000000%,0.000000%)" stroke="rgb(99.315597%,0.000000%,0.000000%)" />
<line x1="427.252544" y1="197.812500" x2="656.154894" y2="197.812500" stroke="rgb(0.000000%,0.000000%,0.000000%)" stroke-width="3.000000" />

<line x1="717.230292" y1="310.000000" x2="717.231711" y2="310.000000" stroke="rgb(100.000000%,0.000000%,0.000000%)" stroke-width="3.000000" />
<text x="722.231711" y="314.000000" font-size="12" font-family="Arial;">BR_061</text>
<line x1="717.230292" y1="330.000000" x2="717.231711" y2="330.000000" stroke="rgb(100.000000%,0.000000%,0.000000%)" stroke-width="3.000000" />
<text x="722.231711" y="334.000000" font-size="12" font-family="Arial;">BR_060</text>
<line x1="717.230292" y1="310.000000" x2="717.230292" y2="330.000000" stroke="rgb(100.000000%,0.000000%,0.000000%)" stroke-width="3.000000" />
<circle cx="717.230292" cy="320.000000" r="0.000000" fill="rgb(100.000000%,0.000000%,0.000000%)" stroke="rgb(100.000000%,0.000000%,0.000000%)" />
<line x1="700.569437" y1="320.000000" x2="717.230292" y2="320.000000" stroke="rgb(99.989649%,0.000000%,0.000000%)" stroke-width="3.000000" />

<line x1="710.589562" y1="350.000000" x2="710.590981" y2="350.000000" stroke="rgb(100.000000%,0.000000%,0.000000%)" stroke-width="3.000000" />
<text x="715.590981" y="354.000000" font-size="12" font-family="Arial;">BR_095</text>
<line x1="710.590981" y1="370.000000" x2="710.592400" y2="370.000000" stroke="rgb(100.000000%,0.000000%,0.000000%)" stroke-width="3.000000" />
<text x="715.592400" y="374.000000" font-size="12" font-family="Arial;">BR_096</text>
<line x1="710.592400" y1="390.000000" x2="710.593818" y2="390.000000" stroke="rgb(100.000000%,0.000000%,0.000000%)" stroke-width="3.000000" />
<text x="715.593818" y="394.000000" font-size="12" font-family="Arial;">BR_106</text>
<line x1="710.592400" y1="410.000000" x2="723.594855" y2="410.000000" stroke="rgb(100.000000%,0.000000%,0.000000%)" stroke-width="3.000000" />
<text x="728.594855" y="414.000000" font-size="12" font-family="Arial;">BR_068</text>
<line x1="710.592400" y1="390.000000" x2="710.592400" y2="410.000000" stroke="rgb(100.000000%,0.000000%,0.000000%)" stroke-width="3.000000" />
<circle cx="710.592400" cy="400.000000" r="0.000000" fill="rgb(100.000000%,0.000000%,0.000000%)" stroke="rgb(100.000000%,0.000000%,0.000000%)" />
<line x1="710.590981" y1="400.000000" x2="710.592400" y2="400.000000" stroke="rgb(100.000000%,0.000000%,0.000000%)" stroke-width="3.000000" />

<line x1="710.590981" y1="370.000000" x2="710.590981" y2="400.000000" stroke="rgb(100.000000%,0.000000%,0.000000%)" stroke-width="3.000000" />
<circle cx="710.590981" cy="385.000000" r="0.000000" fill="rgb(100.000000%,0.000000%,0.000000%)" stroke="rgb(100.000000%,0.000000%,0.000000%)" />
<line x1="710.589562" y1="385.000000" x2="710.590981" y2="385.000000" stroke="rgb(100.000000%,0.000000%,0.000000%)" stroke-width="3.000000" />

<line x1="710.589562" y1="350.000000" x2="710.589562" y2="385.000000" stroke="rgb(100.000000%,0.000000%,0.000000%)" stroke-width="3.000000" />
<circle cx="710.589562" cy="367.500000" r="0.000000" fill="rgb(100.000000%,0.000000%,0.000000%)" stroke="rgb(100.000000%,0.000000%,0.000000%)" />
<line x1="710.588143" y1="367.500000" x2="710.589562" y2="367.500000" stroke="rgb(100.000000%,0.000000%,0.000000%)" stroke-width="3.000000" />

<line x1="710.588143" y1="430.000000" x2="710.589562" y2="430.000000" stroke="rgb(100.000000%,0.000000%,0.000000%)" stroke-width="3.000000" />
<text x="715.589562" y="434.000000" font-size="12" font-family="Arial;">BR_077</text>
<line x1="710.588143" y1="367.500000" x2="710.588143" y2="430.000000" stroke="rgb(100.000000%,0.000000%,0.000000%)" stroke-width="3.000000" />
<circle cx="710.588143" cy="398.750000" r="0.000000" fill="rgb(100.000000%,0.000000%,0.000000%)" stroke="rgb(100.000000%,0.000000%,0.000000%)" />
<line x1="710.586725" y1="398.750000" x2="710.588143" y2="398.750000" stroke="rgb(100.000000%,0.000000%,0.000000%)" stroke-width="3.000000" />

<line x1="710.586725" y1="450.000000" x2="713.794970" y2="450.000000" stroke="rgb(100.000000%,0.000000%,0.000000%)" stroke-width="3.000000" />
<text x="718.794970" y="454.000000" font-size="12" font-family="Arial;">BR_069</text>
<line x1="710.586725" y1="398.750000" x2="710.586725" y2="450.000000" stroke="rgb(100.000000%,0.000000%,0.000000%)" stroke-width="3.000000" />
<circle cx="710.586725" cy="424.375000" r="0.000000" fill="rgb(100.000000%,0.000000%,0.000000%)" stroke="rgb(100.000000%,0.000000%,0.000000%)" />
<line x1="703.805690" y1="424.375000" x2="710.586725" y2="424.375000" stroke="rgb(100.000000%,0.000000%,0.000000%)" stroke-width="3.000000" />

<line x1="710.081002" y1="470.000000" x2="713.326192" y2="470.000000" stroke="rgb(100.000000%,0.000000%,0.000000%)" stroke-width="3.000000" />
<text x="718.326192" y="474.000000" font-size="12" font-family="Arial;">BR_072</text>
<line x1="710.081002" y1="490.000000" x2="719.960138" y2="490.000000" stroke="rgb(100.000000%,0.000000%,0.000000%)" stroke-width="3.000000" />
<text x="724.960138" y="494.000000" font-size="12" font-family="Arial;">BR_099</text>
<line x1="710.081002" y1="470.000000" x2="710.081002" y2="490.000000" stroke="rgb(100.000000%,0.000000%,0.000000%)" stroke-width="3.000000" />
<circle cx="710.081002" cy="480.000000" r="0.000000" fill="rgb(100.000000%,0.000000%,0.000000%)" stroke="rgb(100.000000%,0.000000%,0.000000%)" />
<line x1="703.805690" y1="480.000000" x2="710.081002" y2="480.000000" stroke="rgb(100.000000%,0.000000%,0.000000%)" stroke-width="3.000000" />

<line x1="703.805690" y1="424.375000" x2="703.805690" y2="480.000000" stroke="rgb(100.000000%,0.000000%,0.000000%)" stroke-width="3.000000" />
<circle cx="703.805690" cy="452.187500" r="0.000000" fill="rgb(100.000000%,0.000000%,0.000000%)" stroke="rgb(100.000000%,0.000000%,0.000000%)" />
<line x1="700.569437" y1="452.187500" x2="703.805690" y2="452.187500" stroke="rgb(99.989649%,0.000000%,0.000000%)" stroke-width="3.000000" />

<line x1="700.569437" y1="320.000000" x2="700.569437" y2="452.187500" stroke="rgb(99.989649%,0.000000%,0.000000%)" stroke-width="3.000000" />
<circle cx="700.569437" cy="386.093750" r="0.000000" fill="rgb(99.989649%,0.000000%,0.000000%)" stroke="rgb(99.989649%,0.000000%,0.000000%)" />
<line x1="618.785036" y1="386.093750" x2="700.569437" y2="386.093750" stroke="rgb(5.562666%,0.000000%,0.000000%)" stroke-width="3.000000" />

<line x1="639.138459" y1="510.000000" x2="642.342116" y2="510.000000" stroke="rgb(100.000000%,0.000000%,0.000000%)" stroke-width="3.000000" />
<text x="647.342116" y="514.000000" font-size="12" font-family="Arial;">BR_030</text>
<line x1="639.139877" y1="530.000000" x2="639.141296" y2="530.000000" stroke="rgb(100.000000%,0.000000%,0.000000%)" stroke-width="3.000000" />
<text x="644.141296" y="534.000000" font-size="12" font-family="Arial;">BR_039</text>
<line x1="639.139877" y1="550.000000" x2="642.345909" y2="550.000000" stroke="rgb(100.000000%,0.000000%,0.000000%)" stroke-width="3.000000" />
<text x="647.345909" y="554.000000" font-size="12" font-family="Arial;">BR_097</text>
<line x1="639.139877" y1="530.000000" x2="639.139877" y2="550.000000" stroke="rgb(100.000000%,0.000000%,0.000000%)" stroke-width="3.000000" />
<circle cx="639.139877" cy="540.000000" r="0.000000" fill="rgb(100.000000%,0.000000%,0.000000%)" stroke="rgb(100.000000%,0.000000%,0.000000%)" />
<line x1="639.138459" y1="540.000000" x2="639.139877" y2="540.000000" stroke="rgb(100.000000%,0.000000%,0.000000%)" stroke-width="3.000000" />

<line x1="639.138459" y1="510.000000" x2="639.138459" y2="540.000000" stroke="rgb(100.000000%,0.000000%,0.000000%)" stroke-width="3.000000" />
<circle cx="639.138459" cy="525.000000" r="0.000000" fill="rgb(100.000000%,0.000000%,0.000000%)" stroke="rgb(100.000000%,0.000000%,0.000000%)" />
<line x1="638.463286" y1="525.000000" x2="639.138459" y2="525.000000" stroke="rgb(98.856914%,0.000000%,0.000000%)" stroke-width="3.000000" />

<line x1="647.375529" y1="570.000000" x2="647.376947" y2="570.000000" stroke="rgb(100.000000%,0.000000%,0.000000%)" stroke-width="3.000000" />
<text x="652.376947" y="574.000000" font-size="12" font-family="Arial;">BR_071</text>
<line x1="647.376947" y1="590.000000" x2="647.378366" y2="590.000000" stroke="rgb(100.000000%,0.000000%,0.000000%)" stroke-width="3.000000" />
<text x="652.378366" y="594.000000" font-size="12" font-family="Arial;">BR_070</text>
<line x1="647.376947" y1="610.000000" x2="647.378366" y2="610.000000" stroke="rgb(100.000000%,0.000000%,0.000000%)" stroke-width="3.000000" />
<text x="652.378366" y="614.000000" font-size="12" font-family="Arial;">BR_078</text>
<line x1="647.376947" y1="590.000000" x2="647.376947" y2="610.000000" stroke="rgb(100.000000%,0.000000%,0.000000%)" stroke-width="3.000000" />
<circle cx="647.376947" cy="600.000000" r="0.000000" fill="rgb(100.000000%,0.000000%,0.000000%)" stroke="rgb(100.000000%,0.000000%,0.000000%)" />
<line x1="647.375529" y1="600.000000" x2="647.376947" y2="600.000000" stroke="rgb(100.000000%,0.000000%,0.000000%)" stroke-width="3.000000" />

<line x1="647.375529" y1="570.000000" x2="647.375529" y2="600.000000" stroke="rgb(100.000000%,0.000000%,0.000000%)" stroke-width="3.000000" />
<circle cx="647.375529" cy="585.000000" r="0.000000" fill="rgb(100.000000%,0.000000%,0.000000%)" stroke="rgb(100.000000%,0.000000%,0.000000%)" />
<line x1="647.374110" y1="585.000000" x2="647.375529" y2="585.000000" stroke="rgb(99.971022%,0.000000%,0.000000%)" stroke-width="3.000000" />

<line x1="647.375529" y1="630.000000" x2="650.569411" y2="630.000000" stroke="rgb(100.000000%,0.000000%,0.000000%)" stroke-width="3.000000" />
<text x="655.569411" y="634.000000" font-size="12" font-family="Arial;">BR_066</text>
<line x1="647.375529" y1="650.000000" x2="647.376947" y2="650.000000" stroke="rgb(100.000000%,0.000000%,0.000000%)" stroke-width="3.000000" />
<text x="652.376947" y="654.000000" font-size="12" font-family="Arial;">BR_100</text>
<line x1="647.375529" y1="630.000000" x2="647.375529" y2="650.000000" stroke="rgb(100.000000%,0.000000%,0.000000%)" stroke-width="3.000000" />
<circle cx="647.375529" cy="640.000000" r="0.000000" fill="rgb(100.000000%,0.000000%,0.000000%)" stroke="rgb(100.000000%,0.000000%,0.000000%)" />
<line x1="647.374110" y1="640.000000" x2="647.375529" y2="640.000000" stroke="rgb(99.971022%,0.000000%,0.000000%)" stroke-width="3.000000" />

<line x1="647.374110" y1="585.000000" x2="647.374110" y2="640.000000" stroke="rgb(99.971022%,0.000000%,0.000000%)" stroke-width="3.000000" />
<circle cx="647.374110" cy="612.500000" r="0.000000" fill="rgb(99.971022%,0.000000%,0.000000%)" stroke="rgb(99.971022%,0.000000%,0.000000%)" />
<line x1="638.463286" y1="612.500000" x2="647.374110" y2="612.500000" stroke="rgb(98.856914%,0.000000%,0.000000%)" stroke-width="3.000000" />

<line x1="638.463286" y1="525.000000" x2="638.463286" y2="612.500000" stroke="rgb(98.856914%,0.000000%,0.000000%)" stroke-width="3.000000" />
<circle cx="638.463286" cy="568.750000" r="0.000000" fill="rgb(98.856914%,0.000000%,0.000000%)" stroke="rgb(98.856914%,0.000000%,0.000000%)" />
<line x1="618.785036" y1="568.750000" x2="638.463286" y2="568.750000" stroke="rgb(5.562666%,0.000000%,0.000000%)" stroke-width="3.000000" />

<line x1="618.785036" y1="386.093750" x2="618.785036" y2="568.750000" stroke="rgb(5.562666%,0.000000%,0.000000%)" stroke-width="3.000000" />
<circle cx="618.785036" cy="477.421875" r="0.000000" fill="rgb(5.562666%,0.000000%,0.000000%)" stroke="rgb(5.562666%,0.000000%,0.000000%)" />
<text x="613.785036" y="472.421875" font-size="12" font-family="Arial;" text-anchor="end">0.94</text>
<line x1="427.252544" y1="477.421875" x2="618.785036" y2="477.421875" stroke="rgb(0.000000%,0.000000%,0.000000%)" stroke-width="3.000000" />

<line x1="427.252544" y1="197.812500" x2="427.252544" y2="477.421875" stroke="rgb(0.000000%,0.000000%,0.000000%)" stroke-width="3.000000" />
<circle cx="427.252544" cy="337.617188" r="0.000000" fill="rgb(0.000000%,0.000000%,0.000000%)" stroke="rgb(0.000000%,0.000000%,0.000000%)" />
<text x="422.252544" y="332.617188" font-size="12" font-family="Arial;" text-anchor="end">1.00</text>
<line x1="400.385388" y1="337.617188" x2="427.252544" y2="337.617188" stroke="rgb(0.000000%,0.000000%,0.000000%)" stroke-width="3.000000" />

<line x1="1851.997163" y1="670.000000" x2="1851.998581" y2="670.000000" stroke="rgb(100.000000%,0.000000%,0.000000%)" stroke-width="3.000000" />
<text x="1856.998581" y="674.000000" font-size="12" font-family="Arial;">BR_001</text>
<line x1="1851.998581" y1="690.000000" x2="1852.000000" y2="690.000000" stroke="rgb(100.000000%,0.000000%,0.000000%)" stroke-width="3.000000" />
<text x="1857.000000" y="694.000000" font-size="12" font-family="Arial;">BR_003</text>
<line x1="1851.998581" y1="710.000000" x2="1852.000000" y2="710.000000" stroke="rgb(100.000000%,0.000000%,0.000000%)" stroke-width="3.000000" />
<text x="1857.000000" y="714.000000" font-size="12" font-family="Arial;">BR_002</text>
<line x1="1851.998581" y1="690.000000" x2="1851.998581" y2="710.000000" stroke="rgb(100.000000%,0.000000%,0.000000%)" stroke-width="3.000000" />
<circle cx="1851.998581" cy="700.000000" r="0.000000" fill="rgb(100.000000%,0.000000%,0.000000%)" stroke="rgb(100.000000%,0.000000%,0.000000%)" />
<line x1="1851.997163" y1="700.000000" x2="1851.998581" y2="700.000000" stroke="rgb(100.000000%,0.000000%,0.000000%)" stroke-width="3.000000" />

<line x1="1851.997163" y1="670.000000" x2="1851.997163" y2="700.000000" stroke="rgb(100.000000%,0.000000%,0.000000%)" stroke-width="3.000000" />
<circle cx="1851.997163" cy="685.000000" r="0.000000" fill="rgb(100.000000%,0.000000%,0.000000%)" stroke="rgb(100.000000%,0.000000%,0.000000%)" />
<line x1="495.099044" y1="685.000000" x2="1851.997163" y2="685.000000" stroke="rgb(8.442513%,0.000000%,0.000000%)" stroke-width="3.000000" />

<line x1="636.074776" y1="730.000000" x2="665.148844" y2="730.000000" stroke="rgb(99.140974%,0.000000%,0.000000%)" stroke-width="3.000000" />
<text x="670.148844" y="734.000000" font-size="12" font-family="Arial;">BR_048</text>
<line x1="668.915029" y1="750.000000" x2="672.099900" y2="750.000000" stroke="rgb(100.000000%,0.000000%,0.000000%)" stroke-width="3.000000" />
<text x="677.099900" y="754.000000" font-size="12" font-family="Arial;">BR_062</text>
<line x1="668.916447" y1="770.000000" x2="668.917866" y2="770.000000" stroke="rgb(100.000000%,0.000000%,0.000000%)" stroke-width="3.000000" />
<text x="673.917866" y="774.000000" font-size="12" font-family="Arial;">BR_080</text>
<line x1="668.916447" y1="790.000000" x2="668.917866" y2="790.000000" stroke="rgb(100.000000%,0.000000%,0.000000%)" stroke-width="3.000000" />
<text x="673.917866" y="794.000000" font-size="12" font-family="Arial;">BR_082</text>
<line x1="668.916447" y1="770.000000" x2="668.916447" y2="790.000000" stroke="rgb(100.000000%,0.000000%,0.000000%)" stroke-width="3.000000" />
<circle cx="668.916447" cy="780.000000" r="0.000000" fill="rgb(100.000000%,0.000000%,0.000000%)" stroke="rgb(100.000000%,0.000000%,0.000000%)" />
<line x1="668.915029" y1="780.000000" x2="668.916447" y2="780.000000" stroke="rgb(100.000000%,0.000000%,0.000000%)" stroke-width="3.000000" />

<line x1="668.915029" y1="750.000000" x2="668.915029" y2="780.000000" stroke="rgb(100.000000%,0.000000%,0.000000%)" stroke-width="3.000000" />
<circle cx="668.915029" cy="765.000000" r="0.000000" fill="rgb(100.000000%,0.000000%,0.000000%)" stroke="rgb(100.000000%,0.000000%,0.000000%)" />
<line x1="668.188184" y1="765.000000" x2="668.915029" y2="765.000000" stroke="rgb(99.986740%,0.000000%,0.000000%)" stroke-width="3.000000" />

<line x1="668.188184" y1="810.000000" x2="693.659376" y2="810.000000" stroke="rgb(99.986740%,0.000000%,0.000000%)" stroke-width="3.000000" />
<text x="698.659376" y="814.000000" font-size="12" font-family="Arial;">BR_084</text>
<line x1="668.188184" y1="765.000000" x2="668.188184" y2="810.000000" stroke="rgb(99.986740%,0.000000%,0.000000%)" stroke-width="3.000000" />
<circle cx="668.188184" cy="787.500000" r="0.000000" fill="rgb(99.986740%,0.000000%,0.000000%)" stroke="rgb(99.986740%,0.000000%,0.000000%)" />
<line x1="636.074776" y1="787.500000" x2="668.188184" y2="787.500000" stroke="rgb(99.140974%,0.000000%,0.000000%)" stroke-width="3.000000" />

<line x1="636.074776" y1="730.000000" x2="636.074776" y2="787.500000" stroke="rgb(99.140974%,0.000000%,0.000000%)" stroke-width="3.000000" />
<circle cx="636.074776" cy="758.750000" r="0.000000" fill="rgb(99.140974%,0.000000%,0.000000%)" stroke="rgb(99.140974%,0.000000%,0.000000%)" />
<line x1="495.099044" y1="758.750000" x2="636.074776" y2="758.750000" stroke="rgb(8.442513%,0.000000%,0.000000%)" stroke-width="3.000000" />

<line x1="495.099044" y1="685.000000" x2="495.099044" y2="758.750000" stroke="rgb(8.442513%,0.000000%,0.000000%)" stroke-width="3.000000" />
<circle cx="495.099044" cy="721.875000" r="0.000000" fill="rgb(8.442513%,0.000000%,0.000000%)" stroke="rgb(8.442513%,0.000000%,0.000000%)" />
<text x="490.099044" y="716.875000" font-size="12" font-family="Arial;" text-anchor="end">0.92</text>
<line x1="462.355599" y1="721.875000" x2="495.099044" y2="721.875000" stroke="rgb(5.204095%,0.000000%,0.000000%)" stroke-width="3.000000" />

<line x1="611.085931" y1="830.000000" x2="611.087350" y2="830.000000" stroke="rgb(100.000000%,0.000000%,0.000000%)" stroke-width="3.000000" />
<text x="616.087350" y="834.000000" font-size="12" font-family="Arial;">BR_052</text>
<line x1="611.087350" y1="850.000000" x2="611.088768" y2="850.000000" stroke="rgb(100.000000%,0.000000%,0.000000%)" stroke-width="3.000000" />
<text x="616.088768" y="854.000000" font-size="12" font-family="Arial;">BR_007</text>
<line x1="611.087350" y1="870.000000" x2="611.088768" y2="870.000000" stroke="rgb(100.000000%,0.000000%,0.000000%)" stroke-width="3.000000" />
<text x="616.088768" y="874.000000" font-size="12" font-family="Arial;">BR_012</text>
<line x1="611.087350" y1="850.000000" x2="611.087350" y2="870.000000" stroke="rgb(100.000000%,0.000000%,0.000000%)" stroke-width="3.000000" />
<circle cx="611.087350" cy="860.000000" r="0.000000" fill="rgb(100.000000%,0.000000%,0.000000%)" stroke="rgb(100.000000%,0.000000%,0.000000%)" />
<line x1="611.085931" y1="860.000000" x2="611.087350" y2="860.000000" stroke="rgb(100.000000%,0.000000%,0.000000%)" stroke-width="3.000000" />

<line x1="611.085931" y1="830.000000" x2="611.085931" y2="860.000000" stroke="rgb(100.000000%,0.000000%,0.000000%)" stroke-width="3.000000" />
<circle cx="611.085931" cy="845.000000" r="0.000000" fill="rgb(100.000000%,0.000000%,0.000000%)" stroke="rgb(100.000000%,0.000000%,0.000000%)" />
<line x1="462.355599" y1="845.000000" x2="611.085931" y2="845.000000" stroke="rgb(5.204095%,0.000000%,0.000000%)" stroke-width="3.000000" />

<line x1="462.355599" y1="721.875000" x2="462.355599" y2="845.000000" stroke="rgb(5.204095%,0.000000%,0.000000%)" stroke-width="3.000000" />
<circle cx="462.355599" cy="783.437500" r="0.000000" fill="rgb(5.204095%,0.000000%,0.000000%)" stroke="rgb(5.204095%,0.000000%,0.000000%)" />
<text x="457.355599" y="778.437500" font-size="12" font-family="Arial;" text-anchor="end">0.95</text>
<line x1="400.385388" y1="783.437500" x2="462.355599" y2="783.437500" stroke="rgb(0.000000%,0.000000%,0.000000%)" stroke-width="3.000000" />

<line x1="400.385388" y1="337.617188" x2="400.385388" y2="783.437500" stroke="rgb(0.000000%,0.000000%,0.000000%)" stroke-width="3.000000" />
<circle cx="400.385388" cy="560.527344" r="0.000000" fill="rgb(0.000000%,0.000000%,0.000000%)" stroke="rgb(0.000000%,0.000000%,0.000000%)" />
<text x="395.385388" y="555.527344" font-size="12" font-family="Arial;" text-anchor="end">1.00</text>
<line x1="283.743623" y1="560.527344" x2="400.385388" y2="560.527344" stroke="rgb(0.000000%,0.000000%,0.000000%)" stroke-width="3.000000" />

<line x1="283.743623" y1="48.750000" x2="283.743623" y2="560.527344" stroke="rgb(0.000000%,0.000000%,0.000000%)" stroke-width="3.000000" />
<circle cx="283.743623" cy="304.638672" r="0.000000" fill="rgb(0.000000%,0.000000%,0.000000%)" stroke="rgb(0.000000%,0.000000%,0.000000%)" />
<text x="278.743623" y="299.638672" font-size="12" font-family="Arial;" text-anchor="end">1.00</text>
<line x1="177.294571" y1="304.638672" x2="283.743623" y2="304.638672" stroke="rgb(0.000000%,0.000000%,0.000000%)" stroke-width="3.000000" />

<line x1="538.571687" y1="890.000000" x2="541.823994" y2="890.000000" stroke="rgb(99.956669%,0.000000%,0.000000%)" stroke-width="3.000000" />
<text x="546.823994" y="894.000000" font-size="12" font-family="Arial;">BR_055</text>
<line x1="538.571687" y1="910.000000" x2="538.573106" y2="910.000000" stroke="rgb(99.956669%,0.000000%,0.000000%)" stroke-width="3.000000" />
<text x="543.573106" y="914.000000" font-size="12" font-family="Arial;">BR_057</text>
<line x1="538.571687" y1="890.000000" x2="538.571687" y2="910.000000" stroke="rgb(99.956669%,0.000000%,0.000000%)" stroke-width="3.000000" />
<circle cx="538.571687" cy="900.000000" r="0.000000" fill="rgb(99.956669%,0.000000%,0.000000%)" stroke="rgb(99.956669%,0.000000%,0.000000%)" />
<line x1="267.217122" y1="900.000000" x2="538.571687" y2="900.000000" stroke="rgb(0.000000%,0.000000%,0.000000%)" stroke-width="3.000000" />

<line x1="486.112582" y1="930.000000" x2="822.630323" y2="930.000000" stroke="rgb(0.001716%,0.000000%,0.000000%)" stroke-width="3.000000" />
<text x="827.630323" y="934.000000" font-size="12" font-family="Arial;">BR_026</text>
<line x1="754.739623" y1="950.000000" x2="754.741041" y2="950.000000" stroke="rgb(100.000000%,0.000000%,0.000000%)" stroke-width="3.000000" />
<text x="759.741041" y="954.000000" font-size="12" font-family="Arial;">BR_088</text>
<line x1="754.739623" y1="970.000000" x2="754.741041" y2="970.000000" stroke="rgb(100.000000%,0.000000%,0.000000%)" stroke-width="3.000000" />
<text x="759.741041" y="974.000000" font-size="12" font-family="Arial;">BR_108</text>
<line x1="754.739623" y1="950.000000" x2="754.739623" y2="970.000000" stroke="rgb(100.000000%,0.000000%,0.000000%)" stroke-width="3.000000" />
<circle cx="754.739623" cy="960.000000" r="0.000000" fill="rgb(100.000000%,0.000000%,0.000000%)" stroke="rgb(100.000000%,0.000000%,0.000000%)" />
<line x1="745.049454" y1="960.000000" x2="754.739623" y2="960.000000" stroke="rgb(100.000000%,0.000000%,0.000000%)" stroke-width="3.000000" />

<line x1="745.050872" y1="990.000000" x2="748.273298" y2="990.000000" stroke="rgb(100.000000%,0.000000%,0.000000%)" stroke-width="3.000000" />
<text x="753.273298" y="994.000000" font-size="12" font-family="Arial;">BR_016</text>
<line x1="745.052291" y1="1010.000000" x2="745.053710" y2="1010.000000" stroke="rgb(100.000000%,0.000000%,0.000000%)" stroke-width="3.000000" />
<text x="750.053710" y="1014.000000" font-size="12" font-family="Arial;">BR_006</text>
<line x1="745.052291" y1="1030.000000" x2="745.053710" y2="1030.000000" stroke="rgb(100.000000%,0.000000%,0.000000%)" stroke-width="3.000000" />
<text x="750.053710" y="1034.000000" font-size="12" font-family="Arial;">BR_008</text>
<line x1="745.052291" y1="1010.000000" x2="745.052291" y2="1030.000000" stroke="rgb(100.000000%,0.000000%,0.000000%)" stroke-width="3.000000" />
<circle cx="745.052291" cy="1020.000000" r="0.000000" fill="rgb(100.000000%,0.000000%,0.000000%)" stroke="rgb(100.000000%,0.000000%,0.000000%)" />
<line x1="745.050872" y1="1020.000000" x2="745.052291" y2="1020.000000" stroke="rgb(100.000000%,0.000000%,0.000000%)" stroke-width="3.000000" />

<line x1="745.050872" y1="990.000000" x2="745.050872" y2="1020.000000" stroke="rgb(100.000000%,0.000000%,0.000000%)" stroke-width="3.000000" />
<circle cx="745.050872" cy="1005.000000" r="0.000000" fill="rgb(100.000000%,0.000000%,0.000000%)" stroke="rgb(100.000000%,0.000000%,0.000000%)" />
<line x1="745.049454" y1="1005.000000" x2="745.050872" y2="1005.000000" stroke="rgb(100.000000%,0.000000%,0.000000%)" stroke-width="3.000000" />

<line x1="745.049454" y1="960.000000" x2="745.049454" y2="1005.000000" stroke="rgb(100.000000%,0.000000%,0.000000%)" stroke-width="3.000000" />
<circle cx="745.049454" cy="982.500000" r="0.000000" fill="rgb(100.000000%,0.000000%,0.000000%)" stroke="rgb(100.000000%,0.000000%,0.000000%)" />
<line x1="745.048035" y1="982.500000" x2="745.049454" y2="982.500000" stroke="rgb(99.919320%,0.000000%,0.000000%)" stroke-width="3.000000" />

<line x1="745.048035" y1="1050.000000" x2="748.272565" y2="1050.000000" stroke="rgb(99.919320%,0.000000%,0.000000%)" stroke-width="3.000000" />
<text x="753.272565" y="1054.000000" font-size="12" font-family="Arial;">BR_107</text>
<line x1="745.048035" y1="982.500000" x2="745.048035" y2="1050.000000" stroke="rgb(99.919320%,0.000000%,0.000000%)" stroke-width="3.000000" />
<circle cx="745.048035" cy="1016.250000" r="0.000000" fill="rgb(99.919320%,0.000000%,0.000000%)" stroke="rgb(99.919320%,0.000000%,0.000000%)" />
<line x1="486.112582" y1="1016.250000" x2="745.048035" y2="1016.250000" stroke="rgb(0.001716%,0.000000%,0.000000%)" stroke-width="3.000000" />

<line x1="486.112582" y1="930.000000" x2="486.112582" y2="1016.250000" stroke="rgb(0.001716%,0.000000%,0.000000%)" stroke-width="3.000000" />
<circle cx="486.112582" cy="973.125000" r="0.000000" fill="rgb(0.001716%,0.000000%,0.000000%)" stroke="rgb(0.001716%,0.000000%,0.000000%)" />
<text x="481.112582" y="968.125000" font-size="12" font-family="Arial;" text-anchor="end">1.00</text>
<line x1="267.217122" y1="973.125000" x2="486.112582" y2="973.125000" stroke="rgb(0.000000%,0.000000%,0.000000%)" stroke-width="3.000000" />

<line x1="267.217122" y1="900.000000" x2="267.217122" y2="973.125000" stroke="rgb(0.000000%,0.000000%,0.000000%)" stroke-width="3.000000" />
<circle cx="267.217122" cy="936.562500" r="0.000000" fill="rgb(0.000000%,0.000000%,0.000000%)" stroke="rgb(0.000000%,0.000000%,0.000000%)" />
<text x="262.217122" y="931.562500" font-size="12" font-family="Arial;" text-anchor="end">1.00</text>
<line x1="177.294571" y1="936.562500" x2="267.217122" y2="936.562500" stroke="rgb(0.000000%,0.000000%,0.000000%)" stroke-width="3.000000" />

<line x1="177.294571" y1="304.638672" x2="177.294571" y2="936.562500" stroke="rgb(0.000000%,0.000000%,0.000000%)" stroke-width="3.000000" />
<circle cx="177.294571" cy="620.600586" r="0.000000" fill="rgb(0.000000%,0.000000%,0.000000%)" stroke="rgb(0.000000%,0.000000%,0.000000%)" />
<text x="172.294571" y="615.600586" font-size="12" font-family="Arial;" text-anchor="end">1.00</text>
<line x1="20.000000" y1="620.600586" x2="177.294571" y2="620.600586" stroke="rgb(0.000000%,0.000000%,0.000000%)" stroke-width="3.000000" />

<line x1="20.000000" y1="1070.000000" x2="440.480615" y2="1070.000000" stroke="rgb(0.000000%,0.000000%,0.000000%)" stroke-width="3.000000" />
<text x="445.480615" y="1074.000000" font-size="12" font-family="Arial;">BR_004</text>
<line x1="20.000000" y1="620.600586" x2="20.000000" y2="1070.000000" stroke="rgb(0.000000%,0.000000%,0.000000%)" stroke-width="3.000000" />
<circle cx="20.000000" cy="845.300293" r="0.000000" fill="rgb(0.000000%,0.000000%,0.000000%)" stroke="rgb(0.000000%,0.000000%,0.000000%)" />
<text x="15.000000" y="840.300293" font-size="12" font-family="Arial;" text-anchor="end">1.00</text>
</svg>
